<svg id="_3._Many_Email" data-name="3. Many Email" xmlns="http://www.w3.org/2000/svg" viewBox="0 0 800 600"><defs><style>.cls-1{fill:#0f2064;}.cls-2{fill:#fff;}.cls-3{fill:#eda19b;}</style></defs><title>3. Many Email</title><path class="cls-1" d="M372,303.37a.75.75,0,0,1-.72-.53c0-.16-4.79-15.61-12.21-24.52a.75.75,0,0,1,1.15-1c7.62,9.14,12.3,24.4,12.5,25a.75.75,0,0,1-.5.94A.77.77,0,0,1,372,303.37Z"/><path class="cls-1" d="M284.78,222.24a3.11,3.11,0,0,0-.39,0c-14.88,0-36.5,18-13.52,42.47a5.5,5.5,0,0,0-1.43,5.63,7.86,7.86,0,0,0,3.94,4.79c4.3,2.36,7.4,1.2,9.11,0,2.48,8.86-1.09,14.74-6.6,12.46-6.68-2.77-6.07,5.56-17.7,1.22-4.12-1.54-3.81,4.75-10,2.83-5.56-1.71-2.43-5.11-5.25-5s-6.28,1-7.69-4.61-8.7-1.12-10.52-7.8,4.56-7.49,1.42-13.06-3.44-8.19-.71-12.84-2.63-4.76-1.32-12.24,6.07-3.84,9.92-7.08,2-7.08,3.33-10.82a11.73,11.73,0,0,1,12.75-7c6.47,1,8.6-3,12.65-2.84,8.09.41,6.57,6.78,10.51,6.68C276.91,215,285.19,214.78,284.78,222.24Z"/><path class="cls-1" d="M250.34,292.75a8.09,8.09,0,0,1-2.39-.4c-3.62-1.11-4-3-4.27-4.19-.17-.78-.17-.78-.73-.76l-.81.05c-2.62.18-6.22.43-7.65-5.23-.53-2.09-2-2.46-4.22-2.88s-5.22-1-6.29-4.9a8.69,8.69,0,0,1,1.19-7.36c1-1.76,1.71-3,.3-5.53-3.34-5.92-3.49-8.85-.7-13.59,1.14-1.95.67-2.83-.13-4.3a10.45,10.45,0,0,1-1.29-7.7c.92-5.2,3.53-5.6,6.05-6a7.74,7.74,0,0,0,4.13-1.52c2.23-1.88,2.34-3.92,2.46-6.29a14.64,14.64,0,0,1,.65-4.2,12.46,12.46,0,0,1,13.57-7.48,11.5,11.5,0,0,0,7.66-1.47,9.72,9.72,0,0,1,4.9-1.38c5.1.26,6.74,2.81,7.93,4.68.88,1.38,1.36,2,2.53,2,2.72-.07,7.78-.2,10.53,2.63a6.81,6.81,0,0,1,1.76,5.35.75.75,0,0,1-.27.53.73.73,0,0,1-.57.17h-.3c-7.47,0-17.48,4.81-21.33,13.72-2.51,5.82-3.1,15.31,8.35,27.48a.75.75,0,0,1-.05,1.08,4.73,4.73,0,0,0-1.2,4.87,7.15,7.15,0,0,0,3.58,4.33c3.88,2.13,6.66,1.21,8.32.06a.75.75,0,0,1,1.15.41c1.54,5.51.9,10.35-1.68,12.63a5.4,5.4,0,0,1-5.93.72c-2.57-1.07-3.81-.33-5.53.69-2.34,1.39-5.25,3.11-12.14.54-1.37-.51-2,0-3.12,1.09A6.09,6.09,0,0,1,250.34,292.75Zm-7.28-6.85c1.68,0,1.93,1.17,2.1,1.95.22,1,.47,2.22,3.24,3.07,3,.92,4.13-.21,5.38-1.4s2.37-2.28,4.68-1.41c6.22,2.32,8.68.86,10.85-.42,1.77-1.05,3.61-2.14,6.87-.79a3.93,3.93,0,0,0,4.36-.46c2-1.75,2.52-5.67,1.47-10.15-1.85,1-5,1.7-9-.52a8.63,8.63,0,0,1-4.3-5.25,6.36,6.36,0,0,1,1.12-5.84c-11.5-12.52-10.8-22.44-8.15-28.58,4-9.35,14.45-14.47,22.36-14.62A5,5,0,0,0,282.7,218c-2.29-2.36-7.1-2.23-9.41-2.17-2.1.05-3-1.35-3.83-2.7-1.13-1.77-2.41-3.77-6.75-4a8.44,8.44,0,0,0-4.17,1.23A12.92,12.92,0,0,1,250,212a10.91,10.91,0,0,0-11.93,6.49,13.3,13.3,0,0,0-.57,3.78c-.13,2.49-.27,5.06-3,7.36a9.07,9.07,0,0,1-4.86,1.86c-2.37.37-4.08.63-4.81,4.78a8.92,8.92,0,0,0,1.13,6.72c.86,1.59,1.67,3.09.1,5.77-2.53,4.31-2.4,6.57.72,12.1,1.82,3.23.74,5.15-.3,7a7.23,7.23,0,0,0-1,6.23c.83,3,2.82,3.4,5.12,3.82s4.61.85,5.4,4c1.13,4.45,3.43,4.29,6.09,4.1l.84-.05Z"/><path class="cls-2" d="M269.21,260.2c-8.21-2.32-12.39-10.69-12.47-19.68s10.37-22,24.17-16.73C271.54,226.15,252.84,242,269.21,260.2Z"/><path class="cls-3" d="M488.69,318.86h-.07a.75.75,0,0,1-.51-.27c-13.3-16.11-18.4-23.33-18.16-25.78.28-3,4.33-4.62,8.25-6.21,1.15-.47,2.24-.91,3.16-1.36,2.54-1.24,8.2-4.61,11.34-6.51a5.55,5.55,0,0,1,6.9.9l15.58,16.14a.75.75,0,0,1-.06,1.1l-7.63,6.39L506,304.53c-5.5,4.61-11.28,9.48-16.8,14.15A.75.75,0,0,1,488.69,318.86Zm6.9-39.44a4.08,4.08,0,0,0-2.11.59c-3.87,2.33-9,5.37-11.46,6.57-1,.47-2.08.92-3.25,1.4-3.18,1.29-7.13,2.9-7.32,5-.26,2.69,12.08,17.72,17.34,24.1,5.35-4.53,10.92-9.21,16.22-13.67l1.52-1.27,7-5.88-15-15.56A4.06,4.06,0,0,0,495.59,279.42Z"/><path class="cls-3" d="M505.49,304.71a.75.75,0,0,1-.27,0c-1.62-.62-3.63-1.34-5.62-2.05-7.44-2.67-8.81-3.24-9.14-3.8-.22-.36-.67-1.12,5.23-14.29a.75.75,0,1,1,1.37.61c-2.42,5.39-4.91,11.44-5.2,12.92,1.07.57,5.18,2,8.25,3.15,2,.72,4,1.45,5.65,2.06a.75.75,0,0,1-.27,1.45Zm-13.66-6.44Z"/><path class="cls-1" d="M298.14,297.46a.75.75,0,0,1-.7-.49c-3.9-10.38-11.38-19.65-13.45-22.1a8.55,8.55,0,0,1-1.07.87c-1.64,1.14-5.11,2.66-9.9,0a8.63,8.63,0,0,1-4.3-5.25,6.21,6.21,0,0,1,1.66-6.39,6.11,6.11,0,0,1,5.27-1.22,10.94,10.94,0,0,1,1.45.38.75.75,0,1,1-.48,1.42,9.3,9.3,0,0,0-1.25-.33,4.6,4.6,0,0,0-4,.88,4.73,4.73,0,0,0-1.2,4.87,7.15,7.15,0,0,0,3.58,4.33c3.88,2.13,6.66,1.21,8.32.06a6.38,6.38,0,0,0,1.35-1.22.75.75,0,0,1,.57-.3.8.8,0,0,1,.59.25c.1.11,9.64,10.88,14.27,23.2a.75.75,0,0,1-.7,1Z"/><path class="cls-1" d="M321.15,287.4a.75.75,0,0,1-.62-.32c-3.95-5.66-4.92-8.61-5-8.73a.75.75,0,0,1,1.43-.46s1,2.89,4.76,8.33a.75.75,0,0,1-.61,1.18Z"/><path class="cls-1" d="M269.64,309.19A.75.75,0,0,1,269,308c5.62-8.08,18.39-13.33,31-7.12,6.62,3.27,14.48,3.23,19.55-.1a10.89,10.89,0,0,0,5.05-10.15c-.62-12.59,3.63-21.9,12-26.23a.75.75,0,0,1,.69,1.33c-7.78,4-11.74,12.85-11.15,24.82a12.49,12.49,0,0,1-5.73,11.48c-5.58,3.67-13.84,3.74-21,.19-11.83-5.84-23.81-.94-29.08,6.63A.75.75,0,0,1,269.64,309.19Z"/><path class="cls-1" d="M314.35,425.49A26.7,26.7,0,0,1,303.41,423c-17.48-7.86-33-60.41-37.1-85.48a.75.75,0,1,1,1.48-.24c4,24.8,19.26,76.72,36.23,84.35,6.74,3,13.29,3.17,18.94.41,7.66-3.75,13.53-12.62,16.53-25a.75.75,0,0,1,1.46.35c-3.11,12.8-9.26,22-17.33,26A20.9,20.9,0,0,1,314.35,425.49Z"/><path class="cls-1" d="M288.45,465.44a.75.75,0,0,1-.64-.36c-24.66-40.46-48.14-82.13-41.12-108,2.39-8.8,8-15.46,17-20.35a.75.75,0,1,1,.71,1.32c-8.7,4.68-14,11-16.31,19.42-6.87,25.32,16.47,66.66,41,106.84a.75.75,0,0,1-.64,1.14Z"/><path class="cls-1" d="M321.35,445.52a.75.75,0,0,1-.69-.46c-8.17-19.58-8.17-20.12-8.17-20.3a.75.75,0,0,1,1.49-.1c.26,1,5,12.38,8.06,19.83a.75.75,0,0,1-.69,1ZM314,424.75h0Z"/><path class="cls-3" d="M381,285.56a8.28,8.28,0,0,1-3.7-1c-4.48-2.29-13-4.63-20.47-6.7-8.6-2.38-14-3.91-15.59-5.3-1.06-.9-1.24-2.94-.59-6.41,1.27-6.72,6.43-20,8.41-20.7h0c1.85-.64,8.83,1.36,20.73,6,4.61,1.78,17.47,7,18.15,7.95.79,1.13.54,3.85-.29,12.9l-.16,1.72c-.57,6.25-1.94,9.77-4.31,11.08A4.47,4.47,0,0,1,381,285.56Zm-31.39-38.75c-1.37,1.13-7.56,15.57-7.83,22.31-.06,1.65.28,2.12.43,2.25,1.47,1.25,8.36,3.15,15,5,7.56,2.09,16.13,4.46,20.75,6.81,1.9,1,3.37,1.14,4.49.52,1.84-1,3-4.35,3.54-9.9l.16-1.72c.62-6.82,1-11,.59-11.84C383.91,258.17,352.93,245.88,349.57,246.81Zm-.05,0h0Zm.08,0Z"/><path class="cls-3" d="M380.42,280.86a.75.75,0,0,1-.56-.26c-2-2.27-11.53-14-13.33-16.27-2.59.48-16,3-21.77,5.58a.75.75,0,0,1-.61-1.37c6.5-2.89,21.9-5.65,22.55-5.77a.75.75,0,0,1,.71.27c.11.14,11.44,14.14,13.57,16.57a.75.75,0,0,1-.56,1.24Z"/><path class="cls-1" d="M320.16,459.17a.75.75,0,0,1-.48-1.33c33.41-27.53,93-80.64,93.56-81.18a.75.75,0,1,1,1,1.12c-.6.53-60.16,53.66-93.6,81.21A.75.75,0,0,1,320.16,459.17Z"/><path class="cls-1" d="M305.8,286.05a.75.75,0,0,1-.21-1.47c8.5-2.52,12.85-9,11.64-17.31-.55-3.76-4-14-9.73-24a75.57,75.57,0,0,0-6.37-9.55c-5.55-7-11.05-10.58-16.36-10.73l-.33,0c-7.5,0-17.51,4.81-21.36,13.72-2.51,5.82-3.1,15.31,8.35,27.48a.75.75,0,0,1-1.09,1c-12-12.77-11.33-22.88-8.64-29.11,4.1-9.49,14.76-14.62,22.71-14.62a3.59,3.59,0,0,1,.49,0c5.69.16,11.58,4,17.42,11.29a77.17,77.17,0,0,1,6.5,9.74c5.8,10.19,9.34,20.66,9.91,24.53,1.33,9.13-3.41,16.22-12.69,19A.75.75,0,0,1,305.8,286.05Z"/><path class="cls-1" d="M301.71,233.26a16.47,16.47,0,0,1-6.25-3.49c-5-5-11.79-3-11.79-3-.73,4.51-7.28,3.16-7.28,3.16-.11,6.16-5.63,5-5.63,5,1.69,3.49-2,5.4-2,5.4,1.13,3.72-.9,8.11-.9,8.11.32,3.06,4.92,10.86,7.67,15.29a5.32,5.32,0,0,0-4.64,1.05c-23-24.43-1.36-42.46,13.52-42.47h0a2.62,2.62,0,0,1,.36,0C291,222.42,296.74,227,301.71,233.26Z"/><path class="cls-1" d="M270.87,265.45a.75.75,0,0,1-.55-.24c-12-12.77-11.33-22.88-8.64-29.11,4.1-9.49,14.76-14.62,22.71-14.62a3.59,3.59,0,0,1,.49,0c5.69.16,11.58,4,17.42,11.29a.75.75,0,0,1-.83,1.18,16.77,16.77,0,0,1-6.53-3.67c-3.89-3.89-9.1-3.23-10.62-2.94a4.14,4.14,0,0,1-1.69,2.42c-1.73,1.2-4.22,1.12-5.52,1a5,5,0,0,1-5.24,4.94,4.75,4.75,0,0,1-2.25,4.91,14.16,14.16,0,0,1-1,7.87c.35,2.25,3.08,7.61,7.54,14.78a.75.75,0,0,1-.77,1.13,4.6,4.6,0,0,0-4,.88A.75.75,0,0,1,270.87,265.45ZM284.48,223h-.05c-7.5,0-17.51,4.81-21.36,13.72-2.48,5.74-3.09,15,7.89,27a5.85,5.85,0,0,1,3.13-.91c-3.19-5.22-6.71-11.51-7-14.34a.75.75,0,0,1,.06-.39s1.9-4.19.86-7.58a.75.75,0,0,1,.38-.88c.31-.16,3-1.68,1.7-4.41a.75.75,0,0,1,.83-1.06,4.53,4.53,0,0,0,3.36-.67,4.43,4.43,0,0,0,1.36-3.57.75.75,0,0,1,.9-.72s3.36.67,5.22-.62a2.74,2.74,0,0,0,1.17-1.92.75.75,0,0,1,.54-.6c.3-.08,7.32-2,12.52,3.23a11.83,11.83,0,0,0,3.17,2.16c-4.88-5.45-9.72-8.27-14.4-8.4Z"/><path class="cls-3" d="M416.42,242.22a1.21,1.21,0,0,1-.79-.26c-3.28-2.72-31.42-36-30.75-39.79h0c.52-3,9.55-8.13,14.26-10.44,3.54-1.74,9.78-4.5,11.83-3.42,2.86,1.51,26.33,30.66,28.17,37.14a2,2,0,0,1,0,1.56c-1.6,2.73-18.29,14.47-22.28,15.17A2.18,2.18,0,0,1,416.42,242.22Zm-30.06-39.81c.11,3,24.84,33.77,30.13,38.31,2.49-.07,19.7-11.73,21.31-14.47.52-3.15-24.41-35-27.53-36.62-.67-.35-4,.27-10.47,3.44C392.1,196.86,386.66,200.94,386.36,202.41Z"/><path class="cls-3" d="M434.92,226.43a.74.74,0,0,1-.23,0c-5.48-1.79-23.94-7.3-24.13-7.36a.75.75,0,0,1-.53-.6c-.11-.66-2.66-16.34-2.54-24.76a.76.76,0,0,1,.76-.74.75.75,0,0,1,.74.76c-.11,7.5,2,21.33,2.45,24,2.88.86,18.7,5.6,23.71,7.24a.75.75,0,0,1-.23,1.46Z"/><path class="cls-3" d="M417.62,233.63h-.08a.75.75,0,0,1-.66-.83l1.32-12.12a.75.75,0,1,1,1.49.16L418.36,233A.75.75,0,0,1,417.62,233.63Z"/><path class="cls-3" d="M400.78,204.36c-2,0-3.95,0-5.34-.11a.75.75,0,1,1,.09-1.5c4,.24,13.17,0,13.26,0a.72.72,0,0,1,.77.73.75.75,0,0,1-.73.77C408.58,204.26,404.62,204.36,400.78,204.36Z"/><path class="cls-3" d="M342,209.83a.75.75,0,0,1-.35-.09c-.35-.18-8.7-4.67-20-20.51a.75.75,0,1,1,1.22-.87c11.08,15.5,19.41,20,19.5,20.05a.75.75,0,0,1-.35,1.41Z"/><ellipse class="cls-1" cx="284.79" cy="256.59" rx="1.89" ry="2.65" transform="translate(-98.11 238.34) rotate(-39.29)"/><ellipse class="cls-1" cx="298.14" cy="247.81" rx="1.89" ry="2.65" transform="translate(-89.53 244.8) rotate(-39.29)"/><path class="cls-1" d="M275.61,253.16a.75.75,0,0,1-.63-.34c-1.85-2.84-2-8,1.31-11.92a.75.75,0,1,1,1.15,1A8.85,8.85,0,0,0,276.24,252a.75.75,0,0,1-.63,1.16Z"/><path class="cls-1" d="M296.86,238.63a.75.75,0,0,1-.62-.32c-.93-1.35-4.92-2.77-7.73-2.36a.75.75,0,0,1-.21-1.49c3.21-.46,7.84,1.05,9.18,3a.75.75,0,0,1-.62,1.18Z"/><path class="cls-1" d="M301.71,264.27a.75.75,0,0,1-.75-.75c0-4.45-3.1-6.94-7.4-10.4-1.15-.93-2.35-1.89-3.58-3a.75.75,0,1,1,1-1.13c1.21,1.06,2.39,2,3.53,2.93,4.44,3.57,8,6.4,8,11.56A.75.75,0,0,1,301.71,264.27Z"/><path class="cls-2" d="M295.5,277.09c2.11,3.37,3.94-2.53,6.21-3.8s4.8.19,6-1,.56-4.22-3.84-4.41S293.2,273.41,295.5,277.09Z"/><path class="cls-1" d="M296.84,278.87h-.07a2.43,2.43,0,0,1-1.92-1.38h0a4.74,4.74,0,0,1,.27-5c1.79-3.08,5.74-5.49,8.79-5.34,3.53.15,4.6,1.93,4.89,2.69a2.79,2.79,0,0,1-.55,3c-.83.83-2,.78-3.12.72a5.48,5.48,0,0,0-3.06.44,8.42,8.42,0,0,0-2,2.24C299,277.57,298.09,278.87,296.84,278.87Zm6.84-10.27c-2.45,0-5.8,2.11-7.25,4.6a3.37,3.37,0,0,0-.29,3.49h0c.26.42.52.67.7.68.48,0,1.37-1.19,2-2.06a9.21,9.21,0,0,1,2.51-2.67,6.84,6.84,0,0,1,3.87-.62c1,0,1.64.06,2-.28a1.3,1.3,0,0,0,.21-1.39c-.39-1-1.72-1.66-3.56-1.73Z"/><path class="cls-3" d="M280.79,146.4c-1.93,3.49,18.47,34.27,20.62,34.57s24.72-9.64,23.49-12.31-15.59-32-16.82-33.24S282.3,143.66,280.79,146.4Z"/><path class="cls-2" d="M306.34,176a.75.75,0,0,1-.75-.72l-.8-19a155,155,0,0,1-18.61-8.19.75.75,0,0,1,.73-1.31A157.12,157.12,0,0,0,305.77,155a.75.75,0,0,1,.5.67l.82,19.49a.75.75,0,0,1-.72.78Z"/><path class="cls-3" d="M457.22,262.48a.75.75,0,0,1-.41-.12,92.12,92.12,0,0,1-18.31-16.94.75.75,0,1,1,1.16-1,90.46,90.46,0,0,0,18,16.63.75.75,0,0,1-.41,1.38Z"/><path class="cls-3" d="M243.07,307.05c-2.63,3.69-8.55,23-5.37,24s26.53-3.31,36.82,2.3c1.21.66,10.28-16.76,10.28-20.82C284.79,309.9,245.17,304.1,243.07,307.05Z"/><path class="cls-2" d="M261.47,326.42a.75.75,0,0,1-.48-.17c-.05,0-5.45-4.53-14.71-13.28a.75.75,0,1,1,1-1.09c7.84,7.4,12.89,11.74,14.26,12.9,2.64-1.36,16.24-8.35,18.44-9.51a.75.75,0,0,1,.7,1.33c-2.44,1.29-18.74,9.66-18.9,9.74A.75.75,0,0,1,261.47,326.42Z"/><path class="cls-1" d="M576.45,356.27h-.12c-.23,0-23.12-3.78-32.23-2.49a.75.75,0,0,1-.21-1.49c9.33-1.31,32.46,2.46,32.69,2.5a.75.75,0,0,1-.12,1.49Z"/><path class="cls-1" d="M499.11,373.39a4.67,4.67,0,0,1-2.14-.48c-1.61-.82-2.5-2.62-2.5-5.06,0-5.42,4.41-13,9.82-17,3.14-2.28,6.13-3,8.2-1.92,1.61.82,2.5,2.62,2.5,5.06,0,5.42-4.41,13-9.82,17A10.83,10.83,0,0,1,499.11,373.39ZM510.36,350a9.48,9.48,0,0,0-5.18,2.12c-5.08,3.69-9.21,10.76-9.21,15.76,0,1.31.29,3,1.68,3.72s4,.11,6.64-1.8c5.08-3.69,9.21-10.76,9.21-15.76,0-1.31-.29-3-1.68-3.72A3.2,3.2,0,0,0,510.36,350Z"/><path class="cls-1" d="M392.48,443.12H391c-1.75,0-3.3,0-4.67,0-4.58,0-7.1,0-8.15-1.31a3,3,0,0,1-.31-2.68c.25-1,5-5.33,23.75-22.08,15.85-14.15,35.57-31.77,43.64-40.31a.75.75,0,1,1,1.09,1c-8.12,8.59-27.87,26.23-43.73,40.4-11.55,10.32-22.47,20.07-23.31,21.39-.23,1,0,1.23.05,1.32.6.77,3.27.75,7,.74,1.38,0,2.95,0,4.71,0,9.37.14,62.84-1.45,63.38-1.46h0a.75.75,0,0,1,0,1.5C453.95,441.66,405,443.12,392.48,443.12Z"/><path class="cls-1" d="M452.2,433.32H416a.75.75,0,0,1-.51-1.3c.22-.21,22.44-20.82,32.68-30.15a.75.75,0,1,1,1,1.11c-8.74,8-26.21,24.15-31.26,28.84h34.3a.75.75,0,0,1,0,1.5Z"/><path class="cls-1" d="M432.92,414.05h-.06L417.1,412.8a.75.75,0,0,1-.45-1.3l16.93-15.66a.75.75,0,0,1,.58-.2l15.33,1.46a.75.75,0,0,1,.44,1.29l-16.5,15.45A.75.75,0,0,1,432.92,414.05Zm-14-2.62,13.73,1.09,15-14.09-13.34-1.27Z"/><path class="cls-1" d="M298.93,400.67h-.12a.75.75,0,0,1-.62-.86c2.3-14.18,14.55-27.52,18.12-29.81a.75.75,0,0,1,.81,1.26c-3.44,2.21-15.23,15.07-17.45,28.79A.75.75,0,0,1,298.93,400.67Z"/><path class="cls-1" d="M311.51,376.31a.75.75,0,0,1-.68-.43c-.12-.26-12.28-25.83-20.47-36.1a.75.75,0,0,1,1.17-.94c8.3,10.41,20.53,36.13,20.66,36.39a.75.75,0,0,1-.68,1.07Z"/><path class="cls-3" d="M443.08,335.13a.75.75,0,0,1-.57-.26c-2.42-2.84-5.83-13.31-6-13.75a.75.75,0,1,1,1.43-.46c0,.1,3.25,10,5.48,13,2.74,0,20.17,0,23.55-.55a.75.75,0,0,1,.22,1.48C463.45,335.12,443.91,335.13,443.08,335.13Z"/><path class="cls-3" d="M455.42,343.94a.75.75,0,0,1-.7-.47c-.67-1.69-1.67-8.3-1.78-9a.75.75,0,1,1,1.48-.22,75,75,0,0,0,1.69,8.71.75.75,0,0,1-.7,1Z"/><path class="cls-3" d="M433.86,329.08c-1.92,0-4.22,0-6.83,0a.75.75,0,1,1,0-1.5c7.76.08,12.85,0,12.9,0a.76.76,0,0,1,.76.74.75.75,0,0,1-.74.76S437.66,329.08,433.86,329.08Z"/><path class="cls-3" d="M467.11,306,450.3,320h0c-3.6-1.76-7-3.53-9.61-5.12l-3.16.79-.87-.29c0-.27-19.58-15.92-25.84-20.36-3.05-2.17,19.19-15,22.69-16.52S449.74,293,456.56,298,467.11,306,467.11,306Z"/><path class="cls-2" d="M448.15,315.05a.75.75,0,0,1-.73-.58c-.54-2.36-3.07-14.26-3.65-17-3.32-.21-19.66-1.31-26.42-2.53a.75.75,0,1,1,.27-1.48c7.3,1.32,26.62,2.53,26.82,2.55a.75.75,0,0,1,.69.59c0,.15,3.16,14.88,3.76,17.52a.75.75,0,0,1-.56.9Z"/><path class="cls-3" d="M472.3,320.77c-.84,0-3.26-.6-9.21-5.29a.75.75,0,1,1,.93-1.18c6.35,5,8.22,5,8.28,5a.72.72,0,0,1,.86.57.78.78,0,0,1-.6.9A1.19,1.19,0,0,1,472.3,320.77Z"/><path class="cls-3" d="M452.62,353.5a.74.74,0,0,1-.29-.06c-4.88-2.07-9.52-4.21-13.79-6.37l-.07,0c-17.42-8.76-29-17.78-29.74-21.11-.23-1-.77-3.43,28.59-11l3.17-.79a.75.75,0,0,1,.57.09c2.41,1.45,5.62,3.17,9.55,5.09h0c10.75,5.24,22.82,10.1,23.67,10.36a.75.75,0,0,1,.41,1.25l0,0c-6.68,5.7-10.91,9.34-13,11.2-1.84,1.65-3.31,3-4.45,4.22a13.58,13.58,0,0,0-3.91,6.53.75.75,0,0,1-.73.58Zm-13.54-7.83.07,0c4,2,8.39,4.06,13,6a15.6,15.6,0,0,1,4-6.36c1.18-1.26,2.67-2.63,4.54-4.31s5.92-5.17,12-10.36c-3.85-1.46-14.44-6-22.74-10h0c-3.83-1.87-7-3.55-9.4-5l-2.86.71c-18.07,4.65-26.78,8-27.48,9.29C410.88,327.91,420.1,336.12,439.08,345.67Zm-28.88-20.06h0Z"/><path class="cls-3" d="M453.54,378.09c-15-2-40.78-2.54-44.09-4.24s.43-25,1.79-27.47,10.56-.64,27.56,0h0c4.16,2.09,8.77,4.23,13.82,6.37-.75,3.22-.41,7.33.21,14.31C453.11,370.19,453.34,373.93,453.54,378.09Z"/><path class="cls-2" d="M450.68,370.91a.75.75,0,0,1-.44-.14c-4.31-3.14-11.38-8.2-12.41-8.73-1.45,0-12.49,3.32-22.25,8.05a.75.75,0,1,1-.65-1.35c9.45-4.59,22-8.61,23.34-8.15.91.3,9.29,6.37,12.86,9a.75.75,0,0,1-.44,1.36Z"/><path class="cls-1" d="M362.44,321.63a.75.75,0,0,1-.68-.43c-.06-.12-5.83-12.13-12.6-24.72a.75.75,0,0,1,1.32-.71c6.79,12.62,12.58,24.66,12.64,24.78a.75.75,0,0,1-.68,1.07Z"/><path class="cls-1" d="M382.28,322.3h-.07a.75.75,0,0,1-.68-.82c1.13-12.08,3.44-17.32,3.53-17.53a.75.75,0,0,1,1.37.61c0,.05-2.31,5.27-3.41,17.06A.75.75,0,0,1,382.28,322.3Z"/><path class="cls-1" d="M392.7,326.93a.76.76,0,0,1-.25,0c-.06,0-6.11-2.11-10.92-1.62a.75.75,0,0,1-.15-1.49c5.15-.52,11.31,1.61,11.57,1.7a.75.75,0,0,1-.25,1.46Z"/><path class="cls-1" d="M390.55,326.29h-.07a.75.75,0,0,1-.68-.81c.74-8.12,5.75-17,6-17.34a.75.75,0,1,1,1.3.74c-.05.09-5.07,8.94-5.77,16.73A.75.75,0,0,1,390.55,326.29Z"/><path class="cls-1" d="M376.54,338.12a.75.75,0,0,1-.74-.66c-.22-1.86-.65-3.85-1.14-6.15a77.89,77.89,0,0,1-2.19-21.89.75.75,0,1,1,1.5.07,76.62,76.62,0,0,0,2.15,21.5c.5,2.34.94,4.35,1.17,6.29a.75.75,0,0,1-.66.83Z"/><path class="cls-1" d="M386.63,354.79a10.75,10.75,0,0,1-7.64-3.46,52.06,52.06,0,0,1-4.12-5.25,97.89,97.89,0,0,0-11.41-13.58.75.75,0,1,1,1.05-1.07,99.2,99.2,0,0,1,11.57,13.77,51.12,51.12,0,0,0,4,5.1,9.16,9.16,0,0,0,6.91,3,7.9,7.9,0,0,0,5.9-3.33c4-5.22,4.68-10.57,5.06-16.52.87-5.29,5.32-15.21,7.23-18.07a.75.75,0,1,1,1.25.83c-1.8,2.7-6.17,12.47-7,17.41-.38,5.9-1.08,11.71-5.36,17.27a9.36,9.36,0,0,1-7,3.91Z"/><path class="cls-1" d="M390.89,386.3a.75.75,0,0,1-.43-1.37c11.59-8,9.64-25.84,6.2-42.22a.75.75,0,1,1,1.47-.31c3.54,16.87,5.5,35.25-6.81,43.77A.75.75,0,0,1,390.89,386.3Z"/><path class="cls-1" d="M324.29,380.39a.76.76,0,0,1-.32-.07c-4.26-2-7.49-8.17-10.43-14.35a126.34,126.34,0,0,0-11.86-20,.75.75,0,0,1,1.23-.86,129.28,129.28,0,0,1,12,20.24c2.7,5.67,5.9,11.87,9.7,13.63a.75.75,0,0,1-.32,1.43Z"/><path class="cls-1" d="M315.12,355.52a.75.75,0,0,1-.45-1.35c6.87-5.2,12.08-5.75,12.3-5.78a.74.74,0,0,1,.82.67.75.75,0,0,1-.67.82s-5,.56-11.54,5.48A.75.75,0,0,1,315.12,355.52Z"/><path class="cls-1" d="M341.31,367h-.14a.75.75,0,0,1-.6-.88,20.39,20.39,0,0,0,.19-6.83c-.09-.89-.19-1.81-.21-2.85-.09-5.74,3.24-13.05,3.38-13.36a.75.75,0,1,1,1.36.63c0,.07-3.33,7.32-3.25,12.71,0,1,.1,1.83.2,2.72a21.93,21.93,0,0,1-.21,7.26A.75.75,0,0,1,341.31,367Z"/><path class="cls-1" d="M333.15,355s-3.69-12.36-6.83-22.87a.75.75,0,1,1,1.44-.43c3.15,10.52,6.83,22.88,6.83,22.88Z"/><path class="cls-1" d="M324.53,347.42a.75.75,0,0,1-.71-.5,84.37,84.37,0,0,0-8.08-15.85.75.75,0,1,1,1.25-.83,85.94,85.94,0,0,1,8.24,16.17.75.75,0,0,1-.71,1Z"/><path class="cls-1" d="M318.31,353.42a.75.75,0,0,1-.63-.34c-.08-.12-8.08-12.27-13-18.27a.75.75,0,1,1,1.16-1c5,6.07,13.05,18.28,13.13,18.4a.75.75,0,0,1-.63,1.16Z"/><path class="cls-1" d="M393.48,395.93a.75.75,0,0,1-.73-.6c-2.2-10.85-13.8-43.94-13.92-44.27a.75.75,0,1,1,1.42-.5c.12.33,11.76,33.52,14,44.47a.75.75,0,0,1-.59.88Z"/><path class="cls-3" d="M323.16,396.07a8,8,0,0,1-1.95-.17c-1.42-.4-1.19-2.56-1.12-3.26.56-5.38,7.1-23.07,9.52-23.23h0c30.83-2,40.54,3.72,40.94,4a.75.75,0,0,1,.34.8c-1.73,7.79-6.61,20.08-6.66,20.2a.76.76,0,0,1-.78.47c-9.24-1.06-21.75-.08-30.89.64C328.1,395.84,325.05,396.07,323.16,396.07Zm6.69-25.17c-1.4,1.26-7.39,15.14-8.23,21.58-.22,1.67.05,2,.06,2,1,.26,5.53-.09,10.77-.5,9-.71,21.29-1.67,30.61-.7a171.5,171.5,0,0,0,6.25-18.88C367.05,373.36,356.35,369.2,329.85,370.9Zm-.14,0h0Zm.2-.06Z"/><path class="cls-3" d="M326.68,389.89a.75.75,0,0,1-.44-1.35,63.11,63.11,0,0,1,18.18-9.21.76.76,0,0,1,.5,0l18.53,7.92a.75.75,0,1,1-.59,1.38l-18.28-7.81a63.27,63.27,0,0,0-17.45,8.9A.75.75,0,0,1,326.68,389.89Z"/><path class="cls-1" d="M462.26,442.51a.75.75,0,0,1-.52-1.29l78.06-75.38c0-1.14-.08-5.21-.16-10.57-.29-18.24-.88-56.2-.88-62,0-9.11-1.36-11.69-2.5-12.26-.69-.34-1.66,0-2.87.88-2.1,1.6-8.41,6.79-18.25,15l-7.63,6.39L506,304.53c-5.5,4.61-11.28,9.48-16.8,14.15l-.9.76c-4.88,4.13-9.55,8.08-13.62,11.55-6.84,5.84-11,9.38-12.95,11.17s-3.41,3.12-4.46,4.22c-2.28,2.4-3.37,4.23-3.9,6.53-.71,3-.41,6.91.22,14.07.25,2.88.49,6.5.71,11.06.53,11,.83,25,1.12,38.48.13,6.18.27,12.25.42,17.87a.75.75,0,0,1-.73.77.77.77,0,0,1-.77-.73c-.15-5.62-.28-11.69-.41-17.87-.29-13.48-.59-27.42-1.12-38.44-.22-4.54-.46-8.14-.71-11-.59-6.7-1-11.13-.19-14.54.59-2.55,1.82-4.64,4.27-7.22,1.08-1.14,2.39-2.39,4.55-4.31s6.12-5.35,13-11.17c4.1-3.49,8.76-7.45,13.64-11.58l.9-.76c5.52-4.68,11.3-9.54,16.8-14.16l1.52-1.27,7.63-6.39c6.88-5.73,15.63-13,18.31-15,1.71-1.3,3.2-1.65,4.45-1,2.31,1.14,3.34,5.34,3.34,13.6,0,5.81.6,43.76.88,62,.1,6.43.17,10.67.17,10.9a.75.75,0,0,1-.23.54l-78.29,75.6A.75.75,0,0,1,462.26,442.51Z"/><path class="cls-1" d="M312.25,230a.75.75,0,0,1-.19-1.48c6.61-1.7,8.08-1.81,8.23-1.82a.75.75,0,0,1,.08,1.5,65.08,65.08,0,0,0-7.94,1.78Z"/><path class="cls-1" d="M303.64,213.38a.74.74,0,0,1-.29-.06.75.75,0,0,1-.39-1,93.58,93.58,0,0,1,4.85-10.27.75.75,0,0,1,1.28.78,95.29,95.29,0,0,0-4.75,10.08A.75.75,0,0,1,303.64,213.38Z"/><path class="cls-1" d="M287.06,211.78a.75.75,0,0,1-.71-.51c-2.11-6.29-3.28-9.3-3.29-9.33a.75.75,0,0,1,1.4-.55s1.19,3.06,3.31,9.4a.75.75,0,0,1-.47.95A.74.74,0,0,1,287.06,211.78Z"/><path class="cls-3" d="M402.7,392.3h-.13c-.15,0-15.42-2.79-26.08-3.57a.75.75,0,0,1,.11-1.5c10.74.79,26.08,3.57,26.23,3.59a.75.75,0,0,1-.13,1.49Z"/></svg>