<?xml version="1.0" encoding="UTF-8"?><svg id="Layer" xmlns="http://www.w3.org/2000/svg" viewBox="0 0 512 535.09"><path d="M495.42,244.44c-.57-8.16-7.35-14.48-15.53-14.48h-117.32c-8.18,0-14.96,6.33-15.53,14.48l-15.54,223.04h179.44l-15.54-223.04ZM446.49,261.9h-50.5c-4.62,0-8.36-3.74-8.36-8.36s3.74-8.36,8.36-8.36h50.5c4.62,0,8.36,3.74,8.36,8.36s-3.74,8.36-8.36,8.36Z" fill="#f7e0b2"/><path d="M331.52,467.47h21.39v25.35c0,3.03-2.46,5.48-5.48,5.48h-10.42c-3.03,0-5.48-2.46-5.48-5.48v-25.35h0Z" fill="#f7e0b2"/><path d="M489.57,467.47h21.39v25.35c0,3.03-2.46,5.48-5.48,5.48h-10.42c-3.03,0-5.48-2.46-5.48-5.48v-25.35h0Z" fill="#f7e0b2"/><path d="M354.15,391.66l49.29-85.37c7.86-13.61,27.5-13.61,35.36,0l49.29,85.37c7.86,13.61-1.96,30.62-17.68,30.62h-98.58c-15.71,0-25.53-17.01-17.68-30.62Z" fill="#f2f2f2"/><path d="M469.44,414.55h-96.66c-4.92,0-9.32-2.54-11.78-6.8-2.46-4.26-2.46-9.34,0-13.6l48.33-83.71c2.46-4.26,6.86-6.8,11.78-6.8s9.32,2.54,11.78,6.8l48.33,83.71c2.46,4.26,2.46,9.34,0,13.6-2.46,4.26-6.86,6.8-11.78,6.8ZM421.12,305.73c-4.17,0-7.9,2.15-9.98,5.76l-48.33,83.71h0c-2.08,3.61-2.08,7.91,0,11.52,2.08,3.61,5.81,5.76,9.98,5.76h96.66c4.17,0,7.9-2.15,9.98-5.76,2.08-3.61,2.08-7.91,0-11.52l-48.33-83.71c-2.08-3.61-5.81-5.76-9.98-5.76ZM361.91,394.67h.01-.01Z" fill="#5b4037"/><path d="M449.73,403.72h-57.22c-.57,0-1.04-.46-1.04-1.04s.46-1.04,1.04-1.04h57.22c.57,0,1.04.46,1.04,1.04s-.46,1.04-1.04,1.04Z" fill="#5b4037"/><circle cx="404.08" cy="351.73" r="3.85" fill="#5b4037"/><path d="M411.4,354.6l-13.05,8.63c-2.15,1.42-3.33,3.93-3.04,6.49l.82,7.41c.17,1.52,1.45,2.67,2.99,2.67h0c1.75,0,3.12-1.48,3-3.23l-.59-7.98,2.26-1.58s4.18,9.38,12.19,17.08c1.38,1.32,1.99,3.26,1.55,5.11l-2.14,8.97c-.55,2.29,1.19,4.49,3.54,4.49h0c1.69,0,3.16-1.16,3.55-2.81l2.85-12.09c.4-1.71-.08-3.5-1.25-4.81-2.54-2.86-4.8-6.03-6.18-8.9l12.39-4.86c1.91-.75,4.07-.54,5.8.56l5.4,3.44c1.49.95,3.47.61,4.55-.8h0c1.15-1.49.87-3.63-.62-4.78l-7.68-5.95c-1.73-1.34-4.02-1.71-6.08-.98l-8.17,2.9c-1.39.49-2.94.03-3.83-1.15l-2-2.65,1.85-1.48,3.69.43c1.69.2,3.26-.91,3.65-2.58l1.48-6.47c.4-1.74-.68-3.47-2.42-3.87h0c-1.71-.4-3.42.64-3.86,2.33l-1.27,4.86-6.05.44c-1.18.09-2.31.47-3.29,1.12Z" fill="#5b4037"/><path d="M510.96,468.51h-179.44c-.29,0-.56-.12-.76-.33-.2-.21-.3-.49-.28-.78l15.54-223.04c.6-8.66,7.88-15.45,16.56-15.45h117.32c8.68,0,15.96,6.79,16.56,15.45h0l15.54,223.04c.02.29-.08.57-.28.78s-.47.33-.76.33ZM332.64,466.43h177.21l-15.46-221.93c-.53-7.58-6.89-13.51-14.49-13.51h-117.32c-7.6,0-13.96,5.94-14.49,13.51l-15.46,221.93ZM446.49,262.93h-50.5c-5.18,0-9.4-4.22-9.4-9.4s4.22-9.4,9.4-9.4h50.5c5.18,0,9.4,4.22,9.4,9.4s-4.22,9.4-9.4,9.4ZM395.99,246.21c-4.04,0-7.32,3.28-7.32,7.32s3.28,7.32,7.32,7.32h50.5c4.04,0,7.32-3.28,7.32-7.32s-3.28-7.32-7.32-7.32h-50.5Z" fill="#5b4037"/><path d="M347.43,499.34h-10.42c-3.6,0-6.52-2.93-6.52-6.52v-25.35c0-.57.46-1.04,1.04-1.04h21.39c.57,0,1.04.46,1.04,1.04v25.35c0,3.6-2.93,6.52-6.52,6.52ZM332.56,468.51v24.31c0,2.45,2,4.45,4.45,4.45h10.42c2.45,0,4.45-1.99,4.45-4.45v-24.31h-19.31Z" fill="#5b4037"/><path d="M505.48,499.34h-10.42c-3.6,0-6.52-2.93-6.52-6.52v-25.35c0-.57.46-1.04,1.04-1.04h21.39c.57,0,1.04.46,1.04,1.04v25.35c0,3.6-2.93,6.52-6.52,6.52ZM490.61,468.51v24.31c0,2.45,2,4.45,4.45,4.45h10.42c2.45,0,4.45-1.99,4.45-4.45v-24.31h-19.31Z" fill="#5b4037"/><path d="M109.86,363.98s-5.09-26.19-16.45-55.14c-11.36-28.95-11.28-50.81-10.38-74.37.89-23.56,10.13-35.67,10.13-35.67l45.9,12.62s4.18,42.71,12.48,65.97c8.3,23.26,16.08,59.77,15.86,72.92s-41.23,34.21-57.53,13.67Z" fill="#f4bdbd"/><path d="M129.64,373.6c-8.64,0-15.9-3.06-20.59-8.97-.1-.13-.17-.28-.21-.45-.05-.26-5.21-26.44-16.4-54.96-11.23-28.61-11.4-49.91-10.45-74.79.9-23.62,9.96-35.76,10.35-36.26.26-.34.7-.48,1.1-.37l45.9,12.62c.41.11.72.47.76.9.04.43,4.26,42.85,12.42,65.72,8.12,22.76,16.15,59.75,15.92,73.29-.12,7.05-10.69,16.12-24.07,20.65-5.18,1.76-10.15,2.62-14.73,2.62ZM110.83,363.53c9.55,11.76,26.15,7.76,32.87,5.48,12.39-4.2,22.55-12.6,22.66-18.72.23-13.35-7.74-49.97-15.79-72.56-7.66-21.47-11.87-59.81-12.46-65.5l-44.51-12.23c-1.75,2.63-8.77,14.38-9.53,34.52-.93,24.63-.77,45.71,10.31,73.95,10.67,27.19,15.89,52.28,16.45,55.06Z" fill="#5b4037"/><path d="M13.01,362.71s7.04-52.14,8.67-72.77,6.99-73.7,28.38-99.9c0,0,30.79,6.88,57.37,14.41,0,0,1.69,15.39-2.9,33.08-4.59,17.69.4,29.76-7.46,50.07s-31.62,70.67-34.44,79.88c-2.81,9.21-46.49,4.46-49.62-4.77Z" fill="#f4bdbd"/><path d="M46.36,373.49c-13.19,0-32.09-3.85-34.33-10.45-.05-.15-.07-.31-.05-.47.07-.52,7.06-52.34,8.66-72.71,3.73-47.37,13.62-82.12,28.61-100.47.36-.44,1.01-.51,1.46-.15.44.36.51,1.02.15,1.46-14.72,18.03-24.45,52.37-28.15,99.32-1.55,19.67-8.1,68.53-8.64,72.57,2.03,4.72,18.28,9.06,33.27,8.82,8.06-.13,13.54-1.75,14.3-4.23,1.51-4.93,10.94-26.75,20.94-49.84,8.7-20.1,17.69-40.89,21.38-50.42.08-.21.23-.39.43-.51.07-.04,6.63-4.03,10.35-7.67.41-.4,1.07-.39,1.47.02.4.41.39,1.07-.02,1.47-3.47,3.39-9.05,6.92-10.42,7.77-3.78,9.71-12.68,30.28-21.29,50.17-9.53,22.02-19.38,44.8-20.86,49.62-1.38,4.52-9.6,5.59-16.25,5.7-.33,0-.67,0-1.02,0Z" fill="#5b4037"/><path d="M156.94,238.88s5.89-31.42,9.1-46.29c2.84-13.15-3.82-28.48-9.22-37.68s25.99-40.64,53.25-27.42c0,0,5.92,10.25,2.33,37.27-3.59,27.03-15.27,54.99-16.26,77.68s-38.89,19.65-39.2-3.55Z" fill="#f7e0b2"/><path d="M176.74,260.12c-.13,0-.25,0-.38,0-14.02-.21-20.53-9.9-20.66-18.81,0-.06,0-.12.01-.18.05-.33,5.43-33.05,9.3-48.78,3.23-13.1-4.32-28.75-9.1-36.91-2.09-3.57.29-9.76,6.21-16.17,11.12-12.03,31.01-21.14,48.4-12.71.19.09.34.24.45.41.25.43,6.06,10.87,2.46,37.93-1.65,12.44-5,25.04-8.24,37.24-3.85,14.48-7.48,28.16-8.01,40.35-.53,12.16-10.89,17.63-20.43,17.63ZM157.79,241.36c.21,11.27,9.78,16.54,18.61,16.67.11,0,.23,0,.34,0,8.58,0,17.89-4.86,18.36-15.65.55-12.41,4.21-26.2,8.08-40.79,3.22-12.13,6.55-24.67,8.19-36.98,3.18-23.92-1.22-34.58-2.07-36.35-16.36-7.71-35.1.99-45.65,12.4-5.11,5.53-7.5,11.04-5.94,13.71,4.95,8.43,12.73,24.65,9.33,38.46-3.75,15.24-8.94,46.59-9.25,48.53Z" fill="#5b4037"/><path d="M212.09,142.94s-8.24,22.43-34.53,26.34c0,0-28.99,24.79-40.86,48.77-11.87,23.97-85.41-11.67-89.25-33.85,0,0,4.92-11.9,20.26-30.57,22.66-27.6,24.52-54.51,30.47-64.89,8.56-14.96.4-23.89,11.88-25.37,13.68-1.77,32.61,1.44,53.29,15.18,15.1,10.03,53.99,38.53,48.75,64.41Z" fill="#f7e0b2"/><path d="M119.87,227.06c-2.27,0-4.72-.19-7.35-.57-25.22-3.66-63.22-25.56-66.09-42.12-.03-.19-.01-.39.06-.57.2-.49,5.16-12.26,20.41-30.84,15.58-18.98,21.17-37.36,25.24-50.78,1.81-5.97,3.24-10.68,5.12-13.97,3.68-6.43,4.17-11.61,4.56-15.78.48-5.12.86-9.17,8.08-10.11,9.65-1.25,29.5-.92,54,15.34,13.72,9.11,46,32.84,49.4,56.37.04.25,1.09,6.69,1.19,10.1.02.57-.43,1.05-1.01,1.07-.53.03-1.05-.43-1.07-1.01-.1-3.27-1.15-9.78-1.16-9.85-3.28-22.72-35.01-46-48.49-54.96-23.93-15.89-43.22-16.22-52.58-15.01-5.57.72-5.79,3.08-6.28,8.24-.39,4.14-.92,9.8-4.83,16.62-1.76,3.08-3.17,7.69-4.94,13.54-4.13,13.59-9.78,32.2-25.63,51.5-13.77,16.77-19.14,28.15-19.98,30.04,2.92,14.31,38.09,36.32,64.29,40.12,8.33,1.21,19.07,1,22.95-6.85,11.83-23.89,40.82-48.84,41.11-49.09.44-.37,1.09-.32,1.46.11.37.44.32,1.09-.11,1.46-.29.25-28.96,24.93-40.6,48.44-2.8,5.65-8.88,8.55-17.76,8.55Z" fill="#5b4037"/><path d="M136.41,228.96s5.72-22.9,27.84-47.06c0,0,10.27-12.56,12.69-26.08,0,0-36.86-18.81-52.84-41.37l-8.43-.09s-9.69,14.73-22.26,23.55c-12.57,8.82-19.2,7-19.2,7,0,0-15.52,18.56-22.03,34.88-6.51,16.32-2.76,46.81,7.44,53.03s65.95,17.19,76.79-3.86Z" fill="#f4bdbd"/><path d="M136.41,230c-.08,0-.17,0-.25-.03-.56-.14-.89-.7-.76-1.26.06-.23,6.04-23.44,28.08-47.5.06-.08,9.71-12.01,12.29-24.82-2.36-1.24-10.45-5.62-19.84-11.92-10.18-6.83-23.99-17.36-32.37-28.97l-7.34-.08c-1.8,2.64-10.74,15.31-22.21,23.35-10.69,7.5-17.3,7.52-19.38,7.28-2.4,2.95-15.67,19.57-21.48,34.14-.21.53-.82.79-1.35.58-.53-.21-.79-.82-.58-1.35,6.5-16.28,22.04-34.97,22.2-35.16.26-.31.68-.44,1.07-.34.05.01,6.43,1.49,18.33-6.85,12.27-8.6,21.89-23.12,21.99-23.27.19-.3.54-.45.88-.47l8.43.09c.33,0,.64.17.84.44,15.65,22.09,52.1,40.86,52.47,41.04.41.21.63.66.55,1.11-2.44,13.63-12.48,26.03-12.91,26.56-21.73,23.73-27.58,46.42-27.64,46.65-.12.47-.54.79-1.01.79Z" fill="#5b4037"/><path d="M184.93,328.27s.48-19.9,2.25-31.98c1.77-12.08,10.26-49.23,8.24-59.32-2.02-10.09-23.59-15.16-33.81-8.25-10.22,6.91-2.25,48.44-1.89,67.1.37,18.66,2.12,30.25,2.12,30.25,0,0,14.76,8.34,23.08,2.2Z" fill="#f6cdb1"/><path d="M177.21,331.57c-7.61,0-15.42-4.35-15.87-4.6-.28-.16-.47-.43-.51-.75-.02-.12-1.77-11.87-2.13-30.39-.1-4.93-.74-11.58-1.42-18.62-1.99-20.6-4.25-43.94,3.76-49.35,6.86-4.64,17.97-3.98,25.41-.93,5.65,2.32,9.2,5.81,10,9.83,1.52,7.6-2.66,29.62-5.72,45.7-1.1,5.78-2.05,10.78-2.52,13.97-1.75,11.88-2.23,31.66-2.24,31.86,0,.32-.16.62-.42.81-2.45,1.81-5.38,2.47-8.34,2.47ZM162.8,325.4c2.42,1.26,14.14,6.91,21.11,2.32.09-3.24.64-20.68,2.25-31.59.48-3.24,1.43-8.25,2.53-14.06,3.02-15.91,7.16-37.7,5.72-44.91-.65-3.27-3.85-6.3-8.76-8.32-6.92-2.84-17.2-3.5-23.46.73-6.99,4.73-4.7,28.41-2.86,47.44.68,7.08,1.33,13.77,1.43,18.78.32,16.21,1.7,27.17,2.04,29.61ZM184.93,328.27h.01-.01Z" fill="#5b4037"/><path d="M292.89,485.08h-45.69c-4.39,0-7.71,3.99-6.9,8.3l6.49,34.93c.62,3.33,3.52,5.74,6.9,5.74h58.07c5.32,0,8.7-5.68,6.18-10.36l-18.88-34.93c-1.23-2.27-3.6-3.68-6.18-3.68Z" fill="#f2f2f2"/><path d="M311.77,535.09h-58.07c-3.88,0-7.21-2.77-7.92-6.59l-6.49-34.93c-.44-2.36.19-4.78,1.73-6.62,1.54-1.85,3.8-2.91,6.2-2.91h45.69c2.96,0,5.68,1.62,7.09,4.23l18.88,34.93c1.36,2.52,1.3,5.5-.17,7.96s-4.06,3.93-6.92,3.93ZM247.2,486.12c-1.78,0-3.46.79-4.6,2.16-1.14,1.37-1.61,3.16-1.28,4.92l6.49,34.93c.53,2.83,3,4.89,5.88,4.89h58.07c2.13,0,4.05-1.09,5.14-2.92s1.14-4.04.12-5.91l-18.88-34.93c-1.05-1.94-3.06-3.14-5.26-3.14h-45.69Z" fill="#5b4037"/><path d="M288.68,497.25h-30.54c-2.09,0-3.63,1.93-3.17,3.97l3.57,15.87c.33,1.48,1.65,2.54,3.17,2.54h34.19c2.37,0,3.94-2.45,2.96-4.6l-7.22-15.87c-.53-1.16-1.69-1.91-2.96-1.91Z" fill="#5b4037"/><path d="M4.85,470.91s.28,12.74-2.56,21.34c-2.85,8.61-3.69,19.92,1.28,21.91,0,0,13.8,3.13,31.73,0,0,0,6.26-1.99,5.69-8.25-.57-6.26-1.99-29.03-1.99-35s-34.15,0-34.15,0Z" fill="#5b4037"/><path d="M120.11,481.28s-10.5,20.75-3.33,27.92c0,0,6.66,2.82,29.2,1.02,0,0,3.97-.77,7.3,1.92s35.1,3.84,44.32-.51c0,0,3.59-11.78-4.23-16.4s-14.6-2.56-21.78-7.3-11.91-11.53-11.91-11.53c0,0-20.62-7.56-39.58,4.87Z" fill="#5b4037"/><path d="M161.48,477.7s-13.34,6.05-26.15,6.87-17.28-2.29-17.28-2.29c0,0-5.68-40.71-8.37-123.76,0,0-4.04-28.99,7.72-35.98,16.8-10,45.64,1.83,49.16,21.3s-3.11,30.04-2.3,60.55c.81,30.51-2.93,68.72-2.78,73.31Z" fill="#f4bdbd"/><path d="M131.19,485.75c-9.85,0-13.56-2.5-13.74-2.62-.23-.16-.39-.41-.43-.68-.07-.41-6.8-42.07-9.46-124.25-.02-.57.43-1.05,1-1.07.01,0,.02,0,.03,0,.56,0,1.02.44,1.04,1,2.5,77.28,8.6,118.61,9.36,123.49,1.26.64,6.01,2.57,16.27,1.91,10.95-.71,22.44-5.35,25.18-6.52.03-1.79.28-5.46.63-10.65,1.02-15.05,2.72-40.24,2.15-61.96-.38-14.39.86-24.23,1.96-32.9,1.22-9.67,2.19-17.31.35-27.49-.1-.56.27-1.1.84-1.21.57-.11,1.1.27,1.21.84,1.9,10.5.91,18.27-.33,28.12-1.09,8.6-2.32,18.36-1.95,32.59.58,21.82-1.13,47.06-2.15,62.15-.39,5.74-.67,9.89-.63,11.16.01.42-.23.81-.61.98-.55.25-13.66,6.14-26.51,6.96-1.51.1-2.92.14-4.21.14Z" fill="#5b4037"/><path d="M41.26,478.47s-25.22,4.04-40.11-1.37c0,0,2.44-36.48,3.19-58.1.75-21.62,4.28-52.25,10.79-72.44,7.48-23.22,33.3-46.55,45.23-25.91,0,0,10.78,20.03,3.92,42.34-11.55,37.61-21.56,110.6-23.03,115.47Z" fill="#f4bdbd"/><path d="M21.78,480.98c-7.09,0-14.85-.67-20.98-2.9-.43-.16-.71-.58-.68-1.05.02-.36,2.45-36.71,3.19-58.07.7-20.18,3.95-51.29,10.81-72.63l.99-7.73c.07-.57.6-.97,1.16-.9.57.07.97.59.9,1.16l-1,7.82c0,.06-.02.13-.04.19-6.37,19.78-9.99,50.49-10.74,72.16-.68,19.63-2.78,51.9-3.14,57.34,13.18,4.41,34.16,1.73,38.18,1.16.45-2.05,1.37-7.67,2.58-15.12,4.1-25.12,11.73-71.87,20.29-99.73.04-.1,3.28-7.83,3.82-9.08.23-.53.83-.77,1.37-.54.53.23.77.84.54,1.37-.54,1.25-3.77,8.96-3.77,8.96-8.48,27.63-16.1,74.29-20.19,99.36-1.44,8.84-2.4,14.68-2.8,16.01-.11.38-.44.66-.83.73-.61.1-9.44,1.48-19.65,1.48Z" fill="#5b4037"/><path d="M118.78,64.47c4.74,1.92,8.93,4.99,9.11,10.1.29,7.84-4.38,16.2-14.09,30.26-16.84,24.38-76.22,78.43-90.83,71.75C.09,166.11,27.09,123.27,63.12,88.05c19.55-19.11,44.74-28,55.66-23.59Z" fill="#f7e0b2"/><path d="M25.87,178.17c-1.26,0-2.37-.21-3.33-.65-4.92-2.25-7.87-6-8.77-11.16-1.48-8.52,2.83-20.94,12.46-35.94,8.65-13.46,21.49-28.77,36.15-43.1,12.99-12.69,29.74-22.06,43.72-24.45.13-.04,5.21-1.3,11.98-.99.57.03,1.02.51.99,1.08-.03.57-.51,1-1.08.99-6.43-.3-11.41.93-11.46.94-10.73,1.84-27.51,9.07-42.69,23.9-31.42,30.71-50.72,61.74-48.02,77.21.77,4.44,3.33,7.68,7.58,9.63,5.32,2.44,18.8-4.42,37-18.8,15.74-12.44,33.48-29.38,45.17-43.14.37-.44,1.02-.49,1.46-.12.44.37.49,1.03.12,1.46-20.35,23.94-64.04,63.13-81.28,63.13Z" fill="#5b4037"/><path d="M55.55,142.46s-5.18-.45-10.02,5.5l221.82,359.17c1.88,3.05,5.86,4.02,8.93,2.19h0c3.15-1.88,4.15-5.97,2.22-9.08-27.46-44.22-206.82-333.01-222.95-357.77Z" fill="#5b4037"/><path d="M110.12,257.51s-5.56,1.54-7.07-4.04c0,0-6.83-.68-5.66-7.42,0,0-7.71-2.49-4.91-8.73,0,0-7.53-3.72-2.86-10.9l3.14-18.84s6.52-16.37,11.07-12.72c10.23,8.21,16.15,19.13,17.89,33.62,1.47,12.23-5.36,27.33-11.62,29.02Z" fill="#f6cdb1"/><path d="M103.78,253.66c-.36,0-.71-.19-.9-.53-.28-.5-.11-1.13.39-1.41.04-.02,4.18-2.41,6.91-7.33.28-.5.91-.68,1.41-.4.5.28.68.91.4,1.41-3.02,5.45-7.52,8.02-7.71,8.13-.16.09-.34.13-.51.13Z" fill="#5b4037"/><path d="M98.33,246.55c-.36,0-.71-.19-.9-.53-.28-.5-.11-1.13.39-1.41.04-.02,4.18-2.41,6.91-7.33.28-.5.91-.68,1.41-.4.5.28.68.91.4,1.41-3.02,5.45-7.52,8.02-7.71,8.13-.16.09-.34.13-.51.13Z" fill="#5b4037"/><path d="M93.41,237.73c-.36,0-.71-.19-.9-.53-.28-.5-.11-1.13.39-1.41.04-.02,4.18-2.41,6.91-7.33.28-.5.91-.68,1.41-.4.5.28.68.91.4,1.41-3.02,5.45-7.52,8.02-7.71,8.13-.16.09-.34.13-.51.13Z" fill="#5b4037"/><path d="M108.45,258.74c-1,0-2.24-.18-3.4-.84-1.3-.74-2.23-1.92-2.79-3.51-1.12-.24-3.33-.93-4.74-2.8-1-1.32-1.42-2.96-1.25-4.87-1.31-.57-3.83-1.95-4.91-4.38-.63-1.42-.68-2.96-.14-4.58-1.16-.76-3.18-2.42-3.89-4.99-.59-2.14-.14-4.4,1.33-6.74l3.11-18.63c.01-.07.03-.14.06-.21.51-1.28,5.13-12.57,9.74-13.79,1.06-.28,2.08-.06,2.95.64,10.53,8.46,16.51,19.68,18.27,34.31,1.46,12.13-5.13,28.19-12.37,30.15-.1.03-.88.23-1.95.23ZM93.78,207.86l-3.12,18.73c-.02.14-.08.28-.15.4-1.22,1.88-1.62,3.64-1.19,5.23.73,2.69,3.61,4.16,3.64,4.18.5.25.71.85.48,1.36-.63,1.4-.69,2.63-.2,3.75,1.08,2.44,4.44,3.56,4.48,3.57.49.16.79.66.7,1.17-.29,1.68-.05,3.06.73,4.1,1.37,1.82,3.98,2.11,4.01,2.11.43.05.78.35.9.76.37,1.37,1.05,2.34,2.02,2.89,1.67.95,3.75.42,3.77.41,0,0,0,0,0,0,5.69-1.54,12.26-16.23,10.86-27.9-1.69-14.06-7.42-24.84-17.51-32.94-.36-.29-.69-.37-1.12-.25-2.69.71-6.5,7.96-8.3,12.45Z" fill="#5b4037"/><path d="M51.9,150.42c-5.92-4.49-13.47-6.43-20.75-4.95-5.7,1.15-11.71,4.4-15.36,12.22-3.71,7.96-.75,18.14,14.78,28.91,21.89,15.17,63.7,35.56,71.43,33.89,7.72-1.67,15.08-6.71,6.59-20.57-3.95-6.46-40.52-37.23-56.68-49.5Z" fill="#f6cdb1"/><path d="M91.02,219.2c-.12,0-.24-.02-.35-.06-16.79-6.01-44.59-20.52-60.7-31.69-8.25-5.72-21.18-17.24-15.13-30.2,3.27-6.99,8.68-11.3,16.09-12.8,7.45-1.51,15.33.38,21.61,5.19,15.12,11.54,53.53,43.89,59.02,51.32.34.46.24,1.11-.22,1.45-.46.34-1.11.24-1.45-.22-5.08-6.87-41.77-38.04-58.61-50.9-5.81-4.44-13.08-6.19-19.94-4.8-6.73,1.36-11.65,5.28-14.62,11.64-4.01,8.58,1.12,18.39,14.43,27.62,15.33,10.63,42.5,24.88,59.01,31,.15-1.28.32-3.28.17-4.69-.06-.57.35-1.08.92-1.14.57-.06,1.08.35,1.14.92.27,2.51-.33,6.33-.35,6.5-.05.31-.23.57-.5.73-.16.1-.34.14-.53.14Z" fill="#5b4037"/><path d="M117.69,241.56l6.43,10.27s6.02-9.44-4.3-32.98c-5.49-12.53-4.34,20.96-2.13,22.71Z" fill="#f6cdb1"/><path d="M124.11,252.87c-.31,0-.61-.14-.81-.39l-4.84-5.99c-.36-.45-.29-1.1.15-1.46.45-.36,1.1-.29,1.46.15l3.59,4.43c.91-4.15,2.08-15.41-5.69-33.15-.23-.53,0-1.14.53-1.37.53-.23,1.14,0,1.37.53,10.37,23.67,5.41,36.08,5.2,36.59-.14.34-.45.58-.81.63-.05,0-.1.01-.15.01Z" fill="#5b4037"/><path d="M180.53,91.64s8.58,9.21,5.82,18.39c-3.03,10.09-35.92-17.87-37.8-27.32-2.62-13.14,22.8-4.15,31.98,8.93Z" fill="#f6cdb1"/><path d="M183.2,113.23c-.11,0-.21,0-.33,0-9.86-.47-33.71-22.15-35.34-30.31-.92-4.63,1.46-6.4,2.96-7.05,7.11-3.04,23.8,5.15,30.84,15.12.79.87,8.82,9.98,6.01,19.34-.56,1.88-2.03,2.9-4.15,2.9ZM154.05,77.3c-1.06,0-1.99.15-2.74.47-.61.26-2.47,1.06-1.74,4.73,1.44,7.2,24.6,28.23,33.4,28.65,1.72.08,2.16-.67,2.39-1.42,2.55-8.49-5.51-17.3-5.59-17.39-.03-.03-.06-.07-.09-.11-5.89-8.4-18.66-14.93-25.63-14.93Z" fill="#5b4037"/><path d="M195.42,90.96s-8.97,8.62-12.44,12.78c0,0-8.02,3.05-18.71-8.82-9.44-10.48-9.1-15.92-9.1-15.92,0,0,15.02-14.74,19.72-20.33l20.53,32.29Z" fill="#f6cdb1"/><path d="M182.97,104.77c-.23,0-.47-.08-.66-.24-.44-.37-.5-1.02-.13-1.46,2.98-3.58,9.81-10.24,11.91-12.27l-19.32-30.4c-5.42,6.12-18.29,18.77-18.87,19.34-.41.4-1.07.4-1.47-.01-.4-.41-.4-1.07.01-1.47.15-.15,15.04-14.77,19.66-20.26.21-.25.53-.39.86-.37.33.02.63.2.81.48l20.53,32.29c.27.42.2.96-.16,1.31-.09.09-8.97,8.62-12.36,12.7-.21.25-.5.37-.8.37Z" fill="#5b4037"/><path d="M228.69,19.05c-15.76-10.64-37.17-6.48-47.8,9.29l-6.89,15.81c-16.12,33.57,9.67,47.75,9.67,47.75,16.12,10.87,33.09,3.88,43.72-11.88l11.45-16.97c17.7-26.68-10.15-44-10.15-44Z" fill="#f6cdb1"/><ellipse cx="225.7" cy="70.12" rx="2.6" ry="2.38" transform="translate(60.01 238.65) rotate(-62.75)" fill="#5b4037"/><path d="M215.23,86.35c-1.12,0-2.88-.23-4.39-1.4-1.65-1.28-2.58-3.33-2.77-6.09-.04-.57.39-1.07.97-1.1.57-.04,1.07.39,1.1.97.14,2.13.8,3.67,1.96,4.58,1.66,1.3,3.88.93,3.9.93.57-.1,1.1.28,1.2.84.1.56-.27,1.1-.83,1.2-.05,0-.49.09-1.14.09Z" fill="#5b4037"/><path d="M222.36,85.59s5.5,2.79,7.58-.62c2.08-3.41-2.78-6.86-2.78-6.86l-4.8,7.48Z" fill="#f6cdb1"/><path d="M214.45,46.66c-1.96,0-4.07-.38-6.31-1.28-.53-.21-.79-.82-.58-1.35.21-.53.82-.79,1.35-.58,11.81,4.76,19.39-6.87,19.71-7.37.31-.48.95-.63,1.43-.32.48.31.63.95.32,1.43-.07.11-6.14,9.46-15.92,9.46Z" fill="#5b4037"/><path d="M227.8,38.05s14.18,36.14,25.71,16.57c17.29-29.32-19.68-32.99-19.68-32.99,0,0,2.76-18.29-30.55-13.58,0,0-8.94-13.47-19.15-5.56-19.3,14.94-18.15,57.64,15.17,32.02,0,0,12.12,12.39,28.49,3.55Z" fill="#5b4037"/><path d="M168.83,61.75s-2.27-14.1,1.02-28.84c1.24-5.56,3.47-16,6.86-20.57,4.52-6.09,12.68-8.92,22.76-.02,13.85,12.23-22.9,41.74-22.9,41.74l-7.74,7.69Z" fill="#5b4037"/><path d="M185.28,39.67c-2.66-1.46-10.3-1.72-12.62,7.81-2.32,9.53,9.81,12.63,9.81,12.63l10.96-9.95c-3.99-8.1-5.49-9.03-8.15-10.49Z" fill="#f6cdb1"/><path d="M185.87,52.4c-.05,0-.1,0-.15-.01-.57-.08-.96-.61-.87-1.18.55-3.74-2.33-5.29-2.46-5.36-.51-.26-.71-.89-.45-1.4.26-.51.87-.71,1.39-.45,1.51.76,4.19,3.31,3.57,7.51-.08.52-.52.89-1.03.89Z" fill="#5b4037"/><path d="M178.75,59.67c-.16,0-.33-.04-.48-.12-5.5-2.87-7.85-7.24-6.62-12.31,1.3-5.33,4.15-7.59,6.32-8.54,2.92-1.29,6.1-.87,7.81.07,1.85,1.02,3.39,2.09,6.35,6.68.31.48.17,1.12-.31,1.43-.48.31-1.12.17-1.43-.31-2.9-4.5-4.21-5.22-5.6-5.98-1.07-.58-3.54-1.06-5.97,0-2.49,1.1-4.27,3.57-5.14,7.13-1.26,5.19,2.33,8.29,5.56,9.98.51.27.7.89.44,1.4-.19.35-.55.56-.92.56Z" fill="#5b4037"/><path d="M198.49,97.88s-.04,0-.06,0c-3.41-.2-6.5-1.18-6.63-1.22-.63-.16-16.61-4.52-20.73-19.35-.15-.55.17-1.12.72-1.28.55-.15,1.13.17,1.28.72,3.8,13.66,19.15,17.87,19.31,17.91.08.02,3.03.96,6.17,1.14.57.03,1.01.53.97,1.1-.03.55-.49.98-1.04.98Z" fill="#5b4037"/><path d="M200.97,98.08c-1.59,0-2.56-.19-2.7-.22-.56-.12-.92-.67-.8-1.23.12-.56.66-.92,1.23-.8h0s2.91.57,7.2-.46c3.97-.95,9.99-3.51,16.17-10.26.31-.33.79-.43,1.2-.24.04.02,4.33,1.97,5.77-.44.03-.04.05-.08.09-.12.04-.05,1.2-1.73-1.73-4.65-.36-.35-.41-.91-.12-1.33.11-.16,11.36-16.37,13.35-20.92.23-.52.84-.76,1.37-.54.53.23.77.84.54,1.37-1.85,4.23-10.84,17.37-13.06,20.58,3.21,3.64,1.69,6.22,1.34,6.72-1.94,3.18-6.03,2.11-7.69,1.5-9.09,9.66-17.86,11.04-22.14,11.04Z" fill="#5b4037"/><path d="M169.43,69.78c-.51,0-.96-.38-1.03-.9-.73-5.5,1.18-10.44,1.26-10.65.21-.53.81-.79,1.35-.59.53.21.8.81.59,1.35-.02.05-1.79,4.66-1.14,9.62.08.57-.32,1.09-.89,1.17-.05,0-.09,0-.14,0Z" fill="#5b4037"/><path d="M194.97,357.92s2.37,7.42-2.5,5.84c-4.87-1.58-9.91-14.39-12.74-20.72-3.03-6.78-12.84-22.39-12.84-22.39l16.44.51s7.71,10.97,8.08,18.27.56,13.4,3.56,18.49Z" fill="#f6cdb1"/><path d="M181,368.36s-2.49,3-5.3,1.92-3.53-3.9-3.41-7.27c0,0-4.94-.22-5.57-5.91,0,0-5.74-2.26-4.87-6.85,0,0-4.45-3.66-4.72-9.35-.27-5.69.89-11.37.89-11.37l3.79,6.84s1.89-5,3.96-4.77,2.64,4.01,2.64,4.01c0,0,2.13-1.1,3.76.39,1.63,1.49.33,5.46.33,5.46,0,0,2.78-1.6,3.92.13,1.83,2.78-1.31,12.44-1.31,12.44,0,0,3.07-2.74,5.13-.58s-1.06,11.24-1.06,11.24l1.82,3.67Z" fill="#f6cdb1"/><path d="M166.72,358.13c-.09,0-.17-.01-.26-.03-.56-.14-.89-.71-.75-1.26,1.61-6.32,5.68-15.41,5.85-15.8.24-.52.85-.76,1.37-.52.52.23.76.85.52,1.37-.04.09-4.16,9.31-5.73,15.46-.12.47-.54.78-1,.78Z" fill="#5b4037"/><path d="M161.84,351.28c-.12,0-.24-.02-.36-.07-.54-.2-.81-.8-.61-1.34,2.14-5.75,6.43-14.36,6.62-14.73.26-.51.88-.72,1.39-.46.51.26.72.88.47,1.39-.04.09-4.42,8.88-6.53,14.53-.16.42-.55.68-.97.68Z" fill="#5b4037"/><path d="M172.29,364.04c-.08,0-.17,0-.25-.03-.56-.14-.9-.7-.76-1.26.06-.27,1.61-6.52,2.91-9.18.25-.51.88-.73,1.39-.48.52.25.73.87.48,1.39-1.2,2.46-2.74,8.7-2.76,8.76-.12.47-.54.79-1.01.79Z" fill="#5b4037"/><path d="M176.97,371.55c-.53,0-1.08-.09-1.64-.31-2.69-1.04-4.03-3.44-4.09-7.35-2.01-.46-4.79-2.1-5.47-6.1-1.51-.73-5.42-3.05-5.03-7.16-1.2-1.15-4.41-4.66-4.65-9.7-.28-5.75.87-11.39.91-11.63.09-.43.43-.75.86-.82.42-.06.85.14,1.06.52l2.79,5.03c.9-1.71,2.35-3.7,4.18-3.49,1.96.22,2.88,2.32,3.28,3.71,1-.2,2.44-.19,3.7.96,1.24,1.13,1.27,3.1,1.06,4.59,1.21-.23,2.54-.06,3.36,1.19,1.49,2.25.42,7.54-.45,10.83,1.35-.45,2.9-.43,4.15.88,2.22,2.32.06,9.6-.69,11.88l1.63,3.29c.18.37.13.81-.13,1.12-.1.12-2.14,2.53-4.83,2.53ZM158.57,332.67c-.28,2.14-.55,5.17-.41,8.18.25,5.14,4.3,8.56,4.34,8.6.29.24.43.62.36.99-.7,3.68,4.19,5.67,4.23,5.69.36.14.61.47.65.85.52,4.7,4.43,4.98,4.59,4.99.56.03,1,.51.98,1.07-.12,3.51.75,5.5,2.75,6.27,1.49.57,2.95-.49,3.67-1.15l-1.49-3.01c-.12-.25-.14-.54-.05-.8,1.4-4.08,2.29-9.13,1.29-10.18-1.34-1.4-3.59.56-3.68.64-.35.31-.87.35-1.26.09s-.56-.74-.42-1.19c1.24-3.81,2.5-9.92,1.43-11.55-.57-.87-2.52.19-2.54.2-.37.21-.84.17-1.17-.1-.33-.27-.47-.72-.33-1.12.35-1.09.81-3.59-.05-4.37-1.06-.97-2.52-.26-2.59-.23-.3.15-.65.15-.94,0-.29-.15-.5-.43-.55-.76-.14-.94-.78-3.03-1.73-3.13-.61-.06-2.05,1.92-2.88,4.1-.14.38-.49.64-.9.67-.41.03-.79-.18-.98-.53l-2.33-4.21Z" fill="#5b4037"/><path d="M125.96,63.33s4.8,27.32-10.28,51.03l10.88,8.22s17.46-19.24,13.34-55.73c0,0-4.56-3.45-13.93-3.52Z" fill="#f4bdbd"/><path d="M197.78,107.46s-14.97,34.59-34.04,43.84l10.87,8.19s20.94-13.09,31.84-40.42c0,0-4.24-7.75-8.68-11.61Z" fill="#f4bdbd"/><path d="M191.8,365.17c-.51,0-1.07-.05-1.66-.16-.56-.1-.94-.64-.83-1.21.1-.56.64-.93,1.21-.83,1.44.26,2.46.13,3.05-.4.7-.62.77-1.81.71-2.69-.05-.77-.3-1.57-.75-2.45-2.48-4.87-2.76-10.5-3.09-17.02l-.05-.93c-.36-6.91-7.82-17.62-7.9-17.72-.33-.47-.22-1.12.25-1.45s1.12-.22,1.45.25c.32.46,7.88,11.3,8.27,18.81l.05.93c.32,6.28.6,11.71,2.87,16.18.58,1.13.89,2.19.97,3.24.14,1.93-.34,3.45-1.39,4.38-.78.7-1.84,1.05-3.15,1.05Z" fill="#5b4037"/><path d="M126.55,123.63c-.25,0-.5-.09-.7-.27-.42-.38-.46-1.04-.07-1.47.17-.19,16.94-19.19,13.13-54.44-1.14-.7-5.05-2.78-11.76-3.05.71,5.67,2.69,29.62-10.6,50.52-.31.49-.95.63-1.43.32-.48-.31-.63-.95-.32-1.43,14.68-23.08,10.18-50.03,10.14-50.3-.05-.3.03-.61.23-.85.2-.23.49-.37.79-.37h0c9.6.07,14.35,3.58,14.55,3.73.23.17.37.43.41.71,2.15,19.07-1.64,33.4-5.2,42.07-3.88,9.43-8.22,14.28-8.41,14.48-.2.23-.49.34-.77.34Z" fill="#5b4037"/><path d="M174.62,160.53c-.35,0-.68-.17-.88-.49-.3-.49-.16-1.13.33-1.43.21-.13,20.55-13.1,31.24-39.47-.86-1.5-3.89-6.62-7.18-9.93-1.3,2.82-4.64,9.74-9.33,17.25-8.23,13.18-16.51,21.85-24.6,25.77-.52.25-1.14.03-1.39-.48-.25-.52-.04-1.14.48-1.39,18.5-8.97,33.39-42.98,33.54-43.32.13-.3.4-.53.72-.6.32-.07.66.01.91.23,4.53,3.93,8.73,11.57,8.91,11.89.15.27.17.6.05.88-10.9,27.33-32.04,40.79-32.25,40.92-.17.11-.36.16-.55.16Z" fill="#5b4037"/><path d="M111.56,107.88c-.15,0-.3-.03-.45-.1-.52-.25-.74-.87-.49-1.38.1-.21,10.06-21.45,5.64-35.97-.17-.55.14-1.13.69-1.3.55-.17,1.13.14,1.3.69,4.66,15.3-5.32,36.57-5.75,37.47-.18.37-.55.59-.94.59Z" fill="#5b4037"/><path d="M185.77,165.3c-.33,0-.65-.16-.85-.45-.33-.47-.21-1.12.26-1.44.15-.11,15.32-10.69,21.01-23.12.24-.52.85-.75,1.38-.51.52.24.75.85.51,1.38-5.93,12.96-21.07,23.52-21.71,23.97-.18.12-.39.18-.59.18Z" fill="#5b4037"/><path d="M166.64,489.75c-.26,0-.52-.1-.72-.29-.25-.24-.37-.59-.31-.93.1-.56,2.43-13.65,9.42-15.93,2.81-.91,5.13-.2,6.38,1.96,1.63,2.83.79,7.2-1.83,9.55-4.07,3.65-12.36,5.53-12.71,5.6-.08.02-.15.02-.23.02ZM177.27,474.3c-.55,0-1.11.12-1.6.28-4.53,1.47-6.86,9.29-7.67,12.71,2.55-.71,7.52-2.33,10.19-4.71,2.05-1.84,2.44-5.19,1.42-6.97-.57-.99-1.45-1.31-2.33-1.31Z" fill="#f2f2f2"/><path d="M163.14,489.89c-3,0-7.33-.28-10.36-1.65-3.21-1.45-5.32-5.37-4.62-8.56.53-2.41,2.5-3.79,5.4-3.79.03,0,.06,0,.09,0,7.34.07,13.51,11.86,13.77,12.36.16.31.15.67-.01.98-.17.3-.48.5-.82.53-.14.01-1.52.13-3.45.13ZM153.56,477.96c-1.34,0-2.98.38-3.37,2.16-.44,2,.94,5.08,3.45,6.22,3.26,1.48,8.49,1.52,11.13,1.43-1.81-3.01-6.38-9.77-11.14-9.81-.02,0-.04,0-.07,0Z" fill="#f2f2f2"/><path d="M21.58,487.99c-.33,0-.64-.16-.84-.43-.2-.28-.26-.64-.14-.97.19-.53,4.83-13,12.11-13.99,2.92-.4,5.08.72,5.92,3.07,1.1,3.07-.51,7.23-3.51,9.07-4.66,2.86-13.15,3.23-13.51,3.25-.01,0-.03,0-.04,0ZM33.82,474.6c-.29,0-.57.02-.84.06-4.37.6-8.14,7.26-9.83,11.14,2.63-.24,7.82-.95,10.88-2.82,2.35-1.44,3.33-4.67,2.64-6.6-.5-1.4-1.71-1.77-2.85-1.77Z" fill="#f2f2f2"/><path d="M21.43,487.98s-.06,0-.1,0c-.36-.03-8.82-.86-13.32-3.96-2.9-2-4.28-6.23-3.02-9.24.96-2.3,3.18-3.3,6.08-2.75,7.21,1.38,11.18,14.08,11.34,14.62.1.33.03.69-.19.96-.2.24-.49.38-.8.38ZM9.6,473.94c-1.06,0-2.15.36-2.68,1.62-.79,1.89.02,5.17,2.28,6.73,2.94,2.03,8.08,3.01,10.7,3.39-1.24-3.29-4.53-10.75-9.21-11.64-.35-.07-.72-.11-1.1-.11Z" fill="#f2f2f2"/></svg>