<svg width="600" height="400" viewBox="0 0 600 400" fill="none" xmlns="http://www.w3.org/2000/svg">
  <defs>
    <style>
      .label-text { font-family: -apple-system, BlinkMacSystemFont, 'Segoe UI', Roboto, Helvetica, Arial, sans-serif; font-size: 14px; font-weight: 600; text-anchor: middle; fill: white; }
    </style>
  </defs>

  <g transform="translate(270, 30)">
    <rect x="0" y="0" width="60" height="40" rx="4" fill="none" stroke="#3B82F6" stroke-width="3" />
    <path d="M0 0 L30 24 L60 0" fill="none" stroke="#3B82F6" stroke-width="3" stroke-linejoin="round"/>
  </g>

  <path d="M300 85 L300 105" stroke="#3B82F6" stroke-width="3" stroke-linecap="round"/>
  <path d="M294 100 L300 106 L306 100" fill="none" stroke="#3B82F6" stroke-width="3" stroke-linecap="round" stroke-linejoin="round"/>

  <g transform="translate(260, 115)">
    <path d="M0 0 L80 0 L55 50 L25 50 Z" fill="none" stroke="#3B82F6" stroke-width="3" stroke-linejoin="round"/>
    <rect x="32" y="50" width="16" height="20" fill="#3B82F6" />
    <line x1="15" y1="15" x2="65" y2="15" stroke="#3B82F6" stroke-width="2" stroke-linecap="round" opacity="0.6"/>
    <line x1="22" y1="32" x2="58" y2="32" stroke="#3B82F6" stroke-width="2" stroke-linecap="round" opacity="0.6"/>
  </g>

  <line x1="300" y1="185" x2="300" y2="220" stroke="#3B82F6" stroke-width="3" />
  <path d="M160 220 L440 220" stroke="#3B82F6" stroke-width="3" stroke-linecap="round" />
  <line x1="160" y1="220" x2="160" y2="240" stroke="#3B82F6" stroke-width="3" />
  <line x1="300" y1="220" x2="300" y2="240" stroke="#3B82F6" stroke-width="3" />
  <line x1="440" y1="220" x2="440" y2="240" stroke="#3B82F6" stroke-width="3" />

  <g transform="translate(110, 240)">
    <path d="M6 0 H94 Q100 0 99 6 L93 64 Q92 70 86 70 H14 Q8 70 7 64 L1 6 Q0 0 6 0 Z" fill="#22C55E" />
    <path d="M38 32 L48 42 L62 25" fill="none" stroke="white" stroke-width="3" stroke-linecap="round" stroke-linejoin="round"/>
    <text x="50" y="60" class="label-text">Valid</text>
  </g>

  <g transform="translate(250, 240)">
    <path d="M6 0 H94 Q100 0 99 6 L93 64 Q92 70 86 70 H14 Q8 70 7 64 L1 6 Q0 0 6 0 Z" fill="#F59E0B" />
    <path d="M50 18 L32 46 H68 L50 18Z" fill="none" stroke="white" stroke-width="2.5" stroke-linejoin="round"/>
    <line x1="50" y1="28" x2="50" y2="36" stroke="white" stroke-width="2.5" stroke-linecap="round"/>
    <circle cx="50" cy="41" r="1.5" fill="white"/>
    <text x="50" y="60" class="label-text">Catch-all</text>
  </g>

  <g transform="translate(390, 240)">
    <path d="M6 0 H94 Q100 0 99 6 L93 64 Q92 70 86 70 H14 Q8 70 7 64 L1 6 Q0 0 6 0 Z" fill="#EF4444" />
    <path d="M40 25 L60 45 M60 25 L40 45" stroke="white" stroke-width="3" stroke-linecap="round"/>
    <text x="50" y="60" class="label-text">Invalid</text>
  </g>

</svg>