<?xml version="1.0" encoding="UTF-8"?><svg id="Layer_2" xmlns="http://www.w3.org/2000/svg" viewBox="0 0 684.43 120.67"><defs><style>.cls-1{fill:#fc993e;}</style></defs><g id="Layer_1-2"><g id="QSZaBj"><path d="M347.06,110.77l-4.4-39.68c-.05-.45-.12-1.34-.62-1.34h-8.02s-1.53,7.99-1.53,7.99l-4.42,22.55-1.96,10.36c-.28,1.5-1.66,2.27-3.16,2.27h-13.52c-1.61.02-6.05.4-6.98-.71-.45-.54-.61-1.24-.44-2.09l5.06-25.24,11.42-57.45,4.62-22.69c.23-1.14,1.1-3.12,2.45-3.12l31.82.05c4.42,0,8.64.71,12.81,1.94,3.69,1.09,7.05,2.98,9.47,5.97,2.95,3.64,4.55,8.12,4.9,12.83.65,8.95-.94,17.74-4.35,25.97-3.33,7.05-7.71,11.58-14.7,15.19l3.01,23.51,3.18,23.05c.12.84.04,1.51-.46,2.05-.47.51-1.08.66-1.92.67l-13.02.13-6.45-.05c-1.12,0-2.62-.65-2.79-2.17ZM357.51,21.94c-2.95-1.89-9.98-.97-13.69-1l-5.86,30.13c7.88.64,16.92-.51,20.15-8.83,1.81-4.66,4.6-16.85-.6-20.3Z"/><path d="M454.25,81.12c-3.53,14.82-11.89,27.86-27.2,32.02-7.09,1.93-14.18,2.07-21.37.66-5.94-1.17-11.18-4.24-14.99-8.94-3.51-4.34-5.09-9.69-5.28-15.24-.26-4.03-.18-7.78.62-11.8l8.25-40.99c1.9-9.46,5.11-18.26,11.6-25.48,4.38-4.87,10.12-8.26,16.43-9.96,8.09-2.18,19.43-1.85,27.12,1.4,7.24,3.06,12.01,9.26,13.5,16.91.94,4.83.92,9.63.42,14.51-.28,2.73-.53,5.22-1.02,7.95-2.35,13.11-5,26-8.08,38.95ZM417.06,94.36c7.48.09,10.86-5.38,12.56-11.7,1.22-4.5,2.22-8.83,3.12-13.45l5.83-29.96c.8-4.1,1.23-7.96.87-12.07-.23-2.69-1.34-5.44-3.97-6.54-3.03-1.27-6.7-.89-9.54.72-4.3,2.44-6.25,8.89-7.24,13.49l-2.67,12.42-5.66,28.83c-.85,4.33-1.33,8.28-.55,12.5.67,3.61,3.55,5.73,7.25,5.77Z"/><path d="M527.73,1.69l19.36-.08c1.18,0,2.25,1.04,2,2.3l-7.76,38.78-5.03,25.54c-1.36,6.9-2.63,13.53-4.52,20.29-3.15,11.23-10.32,20.36-21.63,24.02-6.28,2.03-12.7,2.54-19.26,2.07-10.42-.76-21.21-5.69-23.78-16.67-2.32-9.88.37-20.08,2.3-29.89l4.11-20.93,3.71-18.87,4.85-23.63c.38-1.83,1.75-3.02,3.57-3.02l18.32.04c.71,0,1.38.44,1.66.85.4.58.26,1.15.12,1.86l-3.47,17.32-3.77,19.59-6.48,33.56c-.75,3.88-2.24,9.69-1.57,13.36.38,2.13,1.43,4.22,3.49,5.21,3.07,1.47,6.92,1.26,9.8-.62,5.31-3.47,5.98-11.16,7.22-17.23l3.41-16.62,4.38-22.22,6.42-31.85c.24-1.19,1.12-3.14,2.54-3.15Z"/><path d="M667.08,65.12l-26.6.05-5.46,28.01,30.5.04c1.31,0,1.89,1.52,1.61,2.61l-2.9,14.09c-.32,1.58-1.17,2.89-2.97,2.89l-33.53.06-17.34.07c-.89,0-1.71-.3-2.22-.87-.6-.66-.68-1.47-.48-2.5l7.13-35.69,6-30.33,3.27-16.31,4.93-23.33c.27-1.27,1.38-2.42,2.74-2.42l50.73.1c1.44,0,2.16,1.43,1.88,2.69l-3.05,13.9c-.36,2.08-1.78,2.9-3.76,2.89l-28.06-.19c-2.03,8.78-3.41,16.06-5.08,24.91l12.12.09,13.95.08c1.11,0,2.1,1.1,1.87,2.22l-2.98,14.48c-.22,1.05-.96,2.44-2.29,2.45Z"/><path d="M562.7,109.48c-2.85,3.68-5.31,7.35-8.63,10.69l3.84-11.48,7.4-20.65,7.25-21.1h-19.02c-1.23,0-1.58-1.66-1.16-2.57l3.65-9.46,8.05-20.73,4.86-12.82c-1.77-.22-3.34-.12-4.97-.14l-8.19-.07c-.7,0-1.32-.12-1.67-.63-.3-.42-.52-1.08-.38-1.73l3.06-14.24c.22-1.02,1-2.99,2.34-3l30.99-.06,27.67.1c.6,0,1.25.45,1.51.77.4.5.45,1.11.31,1.79l-2.95,14.04c-.41,1.97-1.73,2.93-3.74,2.93l-16.54-.02c-3.68,9.5-7.81,17.31-11.39,26.96l20.66.07c.63,0,1.11.37,1.3.72.28.52.11,1.07-.19,1.56-2.16,3.45-4.61,6.44-7.06,9.73l-17.07,22.98-8.22,11.09-5.94,7.85-5.76,7.42Z"/><path class="cls-1" d="M68.77,98.53c-7.01,10.73-19.08,14.16-31.27,14.27l-12.52.11c-1.04,0-1.96,0-3.02,0l-19.27-.02c-.96,0-1.63-.13-2.11-.75-.54-.7-.69-1.44-.51-2.41l.89-4.9,6.55-31.57,6.52-32.51,1.95-9.13,5.46-27.5c.26-1.31,1.59-2.53,2.85-2.52l32.06.08c4.51.01,8.77.49,13.05,1.78,7.7,2.33,12.77,8.18,13.6,16.29.75,7.33-.48,14.74-3.49,21.45-2.19,4.88-5.87,8.69-10.37,11.3-1.14.91-2.31,1.22-3.87,1.81,4.12,2.95,7.37,6.6,8.93,11.31,2.26,6.82,1.16,15.89-.72,22.67-1.04,3.74-2.52,6.91-4.69,10.24ZM55.1,42.19c3.07-4.03,4.49-13.38,2.67-17.91-.83-1.57-2.46-3.06-4.37-3.27-3.71-.43-7.36-.37-11.25-.22l-2.94,14.47-2.02,10.5c6.27-.09,13.44,1.32,17.91-3.57ZM50.75,79.18c.87-4.68,1.62-11.59-3.71-13.69-1.93-.76-3.95-.83-6.02-.86l-7.8-.11c-.19,2.19-.8,4.05-1.22,6.14l-4.52,22.63,10.29.16c1.72.03,3.32-.27,4.91-.85,5.69-2.89,6.98-7.53,8.08-13.41Z"/><path class="cls-1" d="M127.8,112.72c-8.88,2.94-19.22,3.27-28.04-.23-7.17-2.84-11.84-7.23-13.69-14.95-2.1-8.78-1.84-15.41-.17-24.26l1.4-7.42,5.4-25.65c1.94-9.24,4.34-19.85,10.61-27.1,1.79-2.07,3.48-4.04,5.68-5.63,3.05-2.2,6.28-4.12,9.92-5.3,8.11-2.65,16.73-2.76,25.01-.89,4.14.93,7.61,2.74,10.8,5.51,7.7,6.67,8.42,18.08,7.69,27.69-.5,6.58-1.62,12.82-2.98,19.23l-1.71,8.1c-1.33,6.3-2.41,12.48-4.1,18.68-.82,3.03-1.83,5.76-2.82,8.73-1.51,4.56-4,8.52-6.95,12.27-4.17,5.3-9.61,9.08-16.06,11.22ZM126.4,88.55c2.01-4.08,3.11-8.26,4-12.66l3.55-17.56c1.53-7.58,3.18-14.87,4.27-22.52.5-3.52.76-6.96.24-10.38-.56-3.72-3.39-5.58-6.96-5.64-4.54-.08-8.62,1.96-10.55,6.23-.7,1.56-1.44,3.13-1.88,4.91-2.56,10.37-4.57,20.67-6.62,31.18l-3.32,16.99c-.61,3.13-.88,6.19-.31,9.22.67,3.55,3.14,5.65,6.59,6.03,4.65.51,8.82-1.39,11-5.8Z"/><path class="cls-1" d="M252.72,82.67l-4.82,6.38-9.93,13.08-4.55,6.01-9.57,12.53,4.81-14.19,4.98-14.6,8.58-25.43c-6.31-.11-12.23.19-18.25.43-.67.03-1.26-.06-1.59-.43s-.57-1.29-.32-1.93l5.33-13.65,2.91-7.39,7.96-20.36c.23-.6.41-1.35.11-1.93l-12.9-.07c-1.13,0-2.17-.94-1.86-2.19,1.17-4.77,2.45-9.37,4.25-13.97.6-1.53,1.97-3.35,3.78-3.35l58.39-.04c.62,0,1.22.18,1.46.55.22.35.61,1.09.42,1.63l-3.73,11.02c-.69,2.02-1.51,3.96-2.92,5.53-1,1.11-2.45.92-3.85.9l-15.09-.15c-1.35,2.52-2.2,4.93-3.27,7.46l-4.54,10.72-2.58,6.75c-.18.48-.16.94-.02,1.23.27.54.77.69,1.38.7l8.07.09,11.23.09c.47,0,.9.08,1.01.48.08.27.1.74-.16,1.09l-8.3,11.21-10.59,13.97-5.84,7.82Z"/><path class="cls-1" d="M215.06,109.76c-.34,1.62-1.45,2.96-3.18,2.97l-19.76.09-29.73-.08c-1.26,0-1.62-2.14-1.44-3.06l2.72-14.04,3.95-19.36,4.86-24.25,3.75-18.28,2.6-13.23,3.39-16.58c.21-1.05,1.06-2.36,2.21-2.35l18.99.04c.77,0,1.49.18,1.94.65.48.5.78,1.17.61,2.02l-4.59,22.71-6.65,33.18-1.36,7.17-2.97,14.57c-.68,3.35-1.49,6.47-1.87,10.06l26.4.4c1.37.02,3.01.55,2.88,2.22-.17,2.21-2.12,12.15-2.75,15.13Z"/></g></g></svg>