<?xml version="1.0" encoding="utf-8"?>
<!-- Generator: Adobe Illustrator 25.3.1, SVG Export Plug-In . SVG Version: 6.00 Build 0)  -->
<svg version="1.1" id="Layer_1" xmlns="http://www.w3.org/2000/svg" xmlns:xlink="http://www.w3.org/1999/xlink" x="0px" y="0px"
	 viewBox="0 0 3000 3000" style="enable-background:new 0 0 3000 3000;" xml:space="preserve">
<style type="text/css">
	.st0{fill:#E0ECF8;}
	.st1{fill:#A2BBD8;}
	.st2{fill:#3B5472;}
	.st3{fill:#4D6582;}
	.st4{fill-rule:evenodd;clip-rule:evenodd;fill:#293D56;}
	.st5{fill:#293D56;}
	.st6{fill:#59799F;}
	.st7{fill:#AA5B3F;}
	.st8{fill-rule:evenodd;clip-rule:evenodd;fill:#F0A246;}
	.st9{fill-rule:evenodd;clip-rule:evenodd;fill:#785123;}
	.st10{fill:#F6B383;}
	.st11{fill:#4E2418;}
	.st12{fill:#5E1F14;}
	.st13{fill:#F0A246;}
	.st14{fill-rule:evenodd;clip-rule:evenodd;fill:#743620;}
	.st15{fill:#893224;}
	.st16{fill-rule:evenodd;clip-rule:evenodd;fill:#5E1F14;}
	.st17{fill:#141E2B;}
	.st18{fill-rule:evenodd;clip-rule:evenodd;fill:#E38835;}
	.st19{fill:#B6CAE1;}
	.st20{fill-rule:evenodd;clip-rule:evenodd;fill:#E0ECF8;}
	.st21{fill-rule:evenodd;clip-rule:evenodd;}
</style>
<g>
	<path class="st0" d="M1282.7,2665.8c0,71.5-155.8,129.4-348,129.4c-192.2,0-344-114.4-344-185.9s151.8-73,344-73
		C1126.9,2536.3,1282.7,2594.3,1282.7,2665.8z"/>
	<path class="st0" d="M471.5,1334.5c-41.7,576.5,181,836.7,697.4,878.8c1125.2-27.8,1613-432.3,1403.8-669.6
		c-209.2-237.4-604.2,37.2-599.8-88.2c4.5-125.4,562.6-725.2-37.2-887.8C1336,405.1,513.2,758.1,471.5,1334.5z"/>
	<path class="st1" d="M2651.6,2376.8L381.9,2393c-6.1-52.3,77.5-78.5,120-85.1c-25.2-21.7-44.8-65,78.8-65
		c-181.9-108.8-240.1-429.5,0-258c-137.5-211.4,209.2-326.1,552.3-48.4c0-140.1,89.3-73.9,133.9-23.3
		c-133.9-539.3,193.9-572.9,398.2-33.1c13.9-55.5,54.1-130.4,103.9,14.3c12.5-337.7,224.8-397.8,335.5-106.2
		c2.2-37.6,97.7-154.1,95.9-14.8c248.1-469.4,468.5-208.3,150.1,314.9c152.3-91.4,185-2.2,37.6,154.5c72.4-47.6,187.7-101.3,69.4,65
		C2623.9,2252.7,2656.2,2330.9,2651.6,2376.8z"/>
	<path class="st2" d="M1899.5,2635.7l37.2-1311.1l96.8-28.2l-47,1339.3H1899.5z"/>
	<path class="st3" d="M2317,863.3c157.2,19.7,193.9,337.3,151.8,494.5l-666.1,33.6l-309.1-33.6c2.7-61.8-50.6-432.7,115.1-477.5
		C1792.4,868.1,2191.2,847.5,2317,863.3z"/>
	<path class="st4" d="M1817.4,1249.6c0,50-4.8,92.2-12.1,115.8l-5.1-1.6c7-22.8,11.9-64.4,11.8-114.2c-0.1-49.7-4.9-107.3-17.1-162
		c-12.2-54.7-31.7-106.3-60.9-144.1c-29.1-37.8-67.7-61.8-118.5-61.8v-5.4c52.7,0,92.8,25.1,122.7,63.9
		c29.8,38.7,49.6,91.1,61.9,146.2C1812.4,1141.5,1817.3,1199.5,1817.4,1249.6z"/>
	<path class="st5" d="M1759.1,977.8c65.3,122.8,63.1,323.8,43.7,386.8h-108.9C1675.2,1184,1693.7,1049.9,1759.1,977.8z"/>
	<path class="st6" d="M1479.8,1789.2c135.3,29.1,286.2-144.7,327.4-420.2c-59.4,0-204.1-3.3-307.3-16.6
		C1451.6,1426.8,1344.5,1760.1,1479.8,1789.2z"/>
	<path class="st7" d="M627,2675.6c-1.8-12.2-4.3-42.5,0-65.4c40.5-18.1,124.3-54.2,135.7-54.2s69,10.8,96.3,16.1v38.1
		c-33.9,21.8-110.3,67.2-144.7,74.4C679.9,2691.7,641.7,2681.6,627,2675.6z"/>
	<path class="st7" d="M838.4,2724.4c-21.5-3.6-19.1-40-15.2-57.8l150.5-56.4c15.2,4.5,53.7,15.1,86,21.5c20.1,4,36.6,6.6,47.9,16.6
		c11.3,10,4.5,33-2.7,36.3C1065.5,2702.5,865.3,2728.9,838.4,2724.4z"/>
	<path class="st8" d="M1656.7,1078.3c-34.3,6.3-110.6,32.4-141.1,86.9v23.3c27.6-15.4,96.7-46,151.8-45.2
		c42.7-24.5,94.5-34.1,133.9-37.4c-0.8-4-1.6-8-2.4-12C1757.9,1087.2,1694.3,1081.2,1656.7,1078.3z"/>
	<path class="st9" d="M1659.7,1100.8c-8.5,2.1-15.7,4.1-21.3,5.8l-2.1,0.7l0.2,2.2c0.2,1.4,0.8,3.2,1.8,5.4c1,2.2,2.6,4.8,4.8,7.9
		c4.4,6.2,11.4,14.2,22,23.8l3.6-4c-10.5-9.4-17.1-17.1-21.2-22.9c-2-2.9-3.4-5.3-4.3-7.1c-0.3-0.6-0.5-1.1-0.7-1.5
		c5.6-1.7,12.8-3.7,21-5.6c32.7-7.6,82.2-15.1,124.4-8.8l0.8-5.3c-42.1-6.3-90.9,0.8-123.9,8.3l-5.2-20.2l-5.2,1.3L1659.7,1100.8z
		 M1549.8,1142c16.9-5,66.3-17.7,88.8-23.3l1.3,5.2c-22.6,5.7-71.8,18.3-88.6,23.3L1549.8,1142z"/>
	<path class="st10" d="M581.3,1455.9c-10-31.5,8.4-103.9,18.8-136.2l91.4-44.8l-31.4,232.5C638,1503.4,591.3,1487.4,581.3,1455.9z"
		/>
	<path class="st10" d="M1184.6,1433.5c-37.3,0-80.9-50.5-98.1-75.7l66.3-81.1c8.7,7,30.4,23.8,47.9,34.9
		c46.1-23.3,238.3-86.9,260.7-94.1c22.4-7.2,14.8-39.4,32.7-54.7c21.5-2.7,27.3-20.6,39.9-22.8s13.4,7.6-2.7,25.5
		c10-5.7,35.8-18.7,58.7-25.5c28.7-8.5,28.7,20.2,0,41.2c0.9,31.3-12.1,43-15.7,63.2c-3.6,20.2-59.1,26-71.2,32.2
		C1491,1283,1231.2,1433.5,1184.6,1433.5z"/>
	<path class="st10" d="M987.1,816.7c6.8-12.2,11.8-48.1,13.4-64.5l16.6-36.7l-38.5-34L801.7,917.1l5.8,82.4h115.1l-3.6-42.6
		c4.3,2.4,18,5.7,38.1,0C994.3,926,1000.5,859.7,987.1,816.7z"/>
	<path class="st11" d="M873.3,949.8c-11.8-2.4-41.7-5.7-69,0c0-21.1-110.6-111.9-110.6-176c0-41.2,28.8-79.7,38.5-77.9
		c2.7-25.4,37.5-78.7,155.4-88.7c147.4-12.5,143.8,84.2,140.6,108.4c-2.5,19.4-20.2,33.7-28.7,38.5v-21.5l-45.2,29.6
		c-1,14.8-6.7,48.8-21.1,66.7c0-11.5-7.5-11.8-12.5-10.8l-4.5,15.2c-2.8-0.1-10.2,5.6-13.4,22.4c-3.2,16.8,7.6,24,12.1,28.7
		L873.3,949.8z"/>
	<path class="st12" d="M1071.3,1585.4c-9.1-27.2-32.3-91.5-52.4-131.2c-6.9-52.6-15.4-150.4,5.4-121.4
		c26,36.3,73.9,174.7,89.1,245.5c7.6,4.5,9.9,23.3,0,24.2c-7.9,0.7-37,3-50.6,4L1071.3,1585.4z"/>
	<path class="st13" d="M646.7,2044c9.4-57.8-37.2-195.7-18.8-348c137.5-12.1,412.6-32.2,413-16.1c0.5,20.2-11.2,467.6-17,497.2
		c-5.8,29.6-10.3,106.6-13,164.4c-2.7,57.8-13,199.3-13,245.5c7.2,21.2,3,32.7,0,35.8c-10.3,19.1-39.2,59.2-72.6,66.7
		c-41.7,9.4-86.4,12.5-114.2-30c0.9-24.2,29.1-374.5,34.9-425.1c-8.2-19.3-3.4-36.4,0-42.5c-3.1-6.6-10.8-28-16.1-61.4
		c-12.9,58.8-30.8,288.8-38.1,396.4l5.8,33.6c-3.9,16.6-25,54-78.4,71.2c-53.4,17.2-85.3,1.2-94.5-9l-8.1-46.1l8.1-35.8
		c-0.9-22.2-2.2-79.6,0-131.2C627.4,2345,637.3,2101.8,646.7,2044z"/>
	<path class="st7" d="M645.3,1381.1c-34.4-7.2-60.3-38.8-69-53.8c25.2-64.5,69.1-172,94.1-233.4c4.9-12,11.1-33.7,14.3-40.8
		c9.3-14,66.9-47.9,95-60c0,0,5.4-11.2,13.4-17c33-5.4,113.5,2.2,149.6,6.7l14.8,13.4c13,3.7,45.6,16.4,72.1,37.2
		c33.2,26,116,202.9,129,209.6s18.8,16.1,19.3,24.6c0.4,8.5,16.1,8.1,13,16.6c-3.1,8.5-117.3,105.7-132.6,96.8
		c-12.2-7.2-24.2-22.7-28.7-29.6v158.1c0,25.1,14.3,32.2,12.5,69.9c-9,27.8,26.9,76.6,9,120.5c-17.9,43.9-118.7,54.7-251.3,58.2
		c-106.1,2.9-166.3-37.6-183.2-58.2c1.2-5.7,7.2-23.7,21.5-50.6C638.2,1616.7,634.6,1429,645.3,1381.1z"/>
	<path class="st14" d="M775,995.3c1.6-0.8,3.2-1.4,4.7-2.1c0,0,0.1-0.3,0.4-0.7c0.1,1.8,0.6,3.2,1.6,4.5c1.3,1.7,3.5,3.2,6.9,4.4
		c6.9,2.5,17.8,3.6,32.7,3.5c29.5-0.2,73.5-5.2,129.9-11.5l0,0l1.1-0.1l0.6,5.3l-1.5,0.2c-56.1,6.3-100.2,11.3-130.1,11.5
		c-15,0.1-26.7-0.9-34.6-3.8c-4-1.4-7.2-3.4-9.3-6.2C776.2,998.7,775.5,997.1,775,995.3z M673.1,1086.9
		c-15.1,86.9-20.6,134.9-24.6,211.5l-5.4-0.3c3.7-69.2,8.5-115.2,20.5-187.3c0.3-0.8,0.6-1.5,0.9-2.2c2.1-5.1,4.1-10,5.9-14.6
		C671.3,1091.9,672.2,1089.5,673.1,1086.9z M638.5,1379.4c1.7,0.5,3.5,1,5.3,1.4l4.7-47.8l-5.3-0.5L638.5,1379.4z M969.7,1181.4
		c9.4-14.9,21.7-26.4,36.6-38.4c6-4.8,12.4-9.7,19.3-14.8l0,0c1.7-1.3,3.4-2.6,5.1-3.9c8.8-6.6,18.1-13.8,28-22.1l-3.4-4.1
		c-9.8,8.1-19.1,15.3-27.8,21.9c-1.7,1.3-3.4,2.6-5.1,3.8l0,0l0,0c-6.8,5.2-13.3,10.1-19.4,14.9c-15.2,12.1-28,24.1-37.8,39.7
		L969.7,1181.4z M930.1,1193c1.4,2.5,62.1,107.7,92.3,159.9l4.7-2.7c-30.2-52.3-90.8-157.4-92.3-159.9L930.1,1193z M976.8,1211
		c21.8,12.2,36.1,19.3,76.5,34.2l1.9-5c-40.1-14.8-54.2-21.9-75.8-33.9L976.8,1211z M965.3,1220.2c31.7,37.4,52.9,57.7,106.8,90.2
		l2.8-4.6c-53.4-32.1-74.2-52-105.5-89L965.3,1220.2z"/>
	<path class="st15" d="M750.1,1003.5c10.8-6.7,27.3-15.7,31.4-13.4c-18.4,70.8-16.2,158.7,12.1,270.1
		c27.9,110,105.6,272.2,142.4,342.2c4.2-0.7,7,0.6,9.5,2.7c1.2,1,1.7,2.1,1.6,3.2c49.7-16.3,164.5-20,172.6-10.3
		c9,10.8,34,185.9,13.9,206c-20.2,20.2-100.8,29.1-128.1,30.9c-27.3,1.8-80.6-0.9-86.9-20.6c-6-18.8-25-122.9-17.4-172.2
		c-1.5-0.1-2.7-0.6-3.6-1.6c-3-3.2-1.1-7.9,3.8-13.5c-24.6-38.8-81-139.6-119.8-248.6C732.2,1240,716.1,1073.8,750.1,1003.5z"/>
	<path class="st16" d="M969.9,1776.6c-2.5-26.9-8.3-62.9-15.9-106.1l5.3-0.9c7.6,43.2,13.5,79.4,15.9,106.5c1.2,13.6,1.6,25,1,34
		c-0.6,8.9-2.4,15.9-5.8,20.2l-4.2-3.4c2.4-2.9,4-8.5,4.6-17.2C971.5,1801.2,971.1,1790.1,969.9,1776.6z"/>
	<path class="st16" d="M1089,1693.5c-5.4,5.6-11.6,9.7-18.4,10.1c-7.8,0.5-18.4-1.5-30.1-5.2c-11.8-3.7-24.8-9.2-37.5-15.9
		c-12.7-6.7-25.2-14.7-35.7-23.3c-10.5-8.6-19.2-18.1-24.2-27.8l4.8-2.5c4.6,8.8,12.7,17.8,22.9,26.2c10.2,8.4,22.3,16.1,34.8,22.7
		c12.5,6.6,25.2,11.9,36.6,15.5c11.5,3.6,21.3,5.4,28.1,5c4.8-0.3,9.8-3.2,14.9-8.4c5-5.2,9.7-12.3,14-20.3
		c8.5-16,15.1-35,18.5-47.7l5.2,1.4c-3.5,12.9-10.1,32.3-18.9,48.8C1099.4,1680.3,1094.4,1687.9,1089,1693.5z"/>
	<path class="st17" d="M2413.3,2666.2h-842.1c-8.6-67,69.9-81.4,110.2-80.2c-36.7-29.7-101.8-96.1-68.1-124.1
		c42.1-34.9,62.7-38.5,125.9,94.1c4.3-79.6,50.8-41.2,73.5-12.1c-15.8-60-34.5-181,17.5-185c52-3.9,83.2,129.8,92.3,197.1
		c14-15.1,43.5-33.1,48.8,15.7c125.4-312.6,218.6-260.2,117.4-47c46-29.1,116.6-60.5,31.3,47c43.9-36.7,237.4-155.4,106.6,26.4
		c31.4-18.7,84.6-37.1,47,38.5C2452.3,2638.1,2441.2,2656.9,2413.3,2666.2z"/>
	<path class="st18" d="M745.1,1825.3c-14.6-22.6-25.5-41.5-26.5-43.4l4.8-2.4c0.8,1.6,11.6,20.4,26.2,42.9
		c14.5,22.6,32.7,48.7,48.2,65.3l0.6,0.7l0.1,0.9c0.7,6.6,1.3,13,1.9,19.3c1.3,13.3,2.4,26,3.5,38.1c6.3,68.9,11,121,28.9,180
		l-5.1,1.6c-18.1-59.5-22.9-112.2-29.2-181.1c-1.1-11.8-2.2-24-3.4-36.8c-12.5-8.8-28.1-23.4-40.3-36.6
		c-6.3-6.8-11.8-13.3-15.5-18.6c-1.9-2.6-3.4-5-4.3-7c-0.5-1-0.8-2-1-3c-0.2-0.9-0.3-2.1,0.2-3.2l4.9,2.2c0.1-0.2,0.1-0.3,0.1-0.3
		c0,0,0,0.1,0,0.3c0.1,0.4,0.3,1,0.6,1.8c0.7,1.6,2,3.7,3.8,6.2c3.6,5,8.9,11.3,15.1,18c10.9,11.8,24.3,24.4,35.7,33.1
		c-0.4-4.1-0.8-8.2-1.2-12.4C777.5,1873.7,759.5,1847.6,745.1,1825.3z M739.2,1843.7C739.2,1843.7,739.2,1843.7,739.2,1843.7
		S739.2,1843.7,739.2,1843.7z M741.8,2183.1l-55.1-26l2.3-4.9l55.1,26L741.8,2183.1z M675.1,2171.8c-5.4-5.7-9.7-11.3-11.7-16.1
		l5-2.1c1.6,3.8,5.4,8.9,10.6,14.5c5.2,5.5,11.6,11.3,18.4,16.5c6.7,5.2,13.7,9.8,19.9,12.9c3.1,1.6,6,2.8,8.5,3.5
		c2.5,0.7,4.6,0.9,6.1,0.8l0.7,5.3c-2.5,0.3-5.3-0.1-8.2-0.9c-2.9-0.8-6.1-2.2-9.4-3.8c-6.6-3.3-13.9-8.1-20.8-13.5
		C687.2,2183.5,680.5,2177.5,675.1,2171.8z M893.5,2182.4l56.6-4l-0.4-5.4l-69.9,4.9l-0.6,5.2c18.4,5.8,29.6,11.1,35.1,15.2
		c1.4,1,2.3,1.9,2.9,2.7c0.6,0.8,0.7,1.2,0.8,1.3c0,0.1,0,0,0,0.1c-0.1,0.1-0.5,0.4-1.3,0.8c-1.7,0.7-4.7,1.1-8.9,1
		c-4.2-0.1-9.4-0.7-15.5-1.9c-12.2-2.3-28-7.1-46.1-14.8l-2.1,4.9c18.4,7.9,34.5,12.7,47.2,15.2c6.3,1.2,11.9,1.9,16.4,1.9
		c4.5,0.1,8.2-0.3,10.9-1.3c1.3-0.5,2.6-1.3,3.5-2.4c1-1.2,1.4-2.7,1.2-4.2c-0.2-1.4-0.9-2.8-1.9-4c-1-1.2-2.3-2.4-3.8-3.6
		C912.9,2190.6,905,2186.6,893.5,2182.4z M657.7,2566.3c-5.2-3.6-9.4-8-10.5-12.9l5.2-1.2c0.7,2.9,3.4,6.3,8.3,9.6
		c4.8,3.3,11.2,6.2,18.3,8.3c14.3,4.2,30.6,4.9,41.7-0.9l2.5,4.8c-12.9,6.6-30.8,5.6-45.7,1.3C670,2573.1,663,2570,657.7,2566.3z
		 M876.3,2646.5c-10.6-2.3-19.9-6.4-31.1-12l2.4-4.8c11.1,5.6,19.9,9.4,29.8,11.5c9.9,2.1,21.2,2.6,37.3,1.2l0.5,5.4
		C898.8,2649.3,887,2648.8,876.3,2646.5z"/>
	<path class="st19" d="M1627.4,390.3l-376.9,191.9c-2.3,1.2-3.3,3.9-2.3,6.4l108.5,263.9c1.1,2.6,4.1,3.8,6.7,2.6l387.5-176.4
		c2.5-1.1,3.6-4,2.5-6.5l-119-279.4C1633.1,390.2,1630,389,1627.4,390.3z"/>
	<path class="st20" d="M1356.2,851.5l105.2-182.2c-42.3-9.5-97.2-27.3-143.8-44.4c-24-8.8-45.9-17.5-62.7-24.7
		c-0.8-0.4-1.6-0.7-2.5-1.1l-3.3-8c2.5,1.1,5.2,2.3,8.1,3.6c16.7,7.2,38.4,15.8,62.4,24.6c48,17.6,104.6,35.9,147,45
		c14.1,3,26.5,5,36.5,5.7l15.2-33.5l111.9-246.7c1.7,0.2,3.3,1.3,4,3l0.6,1.4l-109.4,241.2l226.9,34.7l0.9,2.1
		c0.6,1.4,0.5,2.8-0.1,4.1L1522.9,641l-15.1,33.3l-0.8,1.9l-2-0.1c-10.2-0.5-23-2.4-37.4-5.5l-106.8,184.9c-1.8-0.2-3.4-1.3-4.2-3.1
		L1356.2,851.5z"/>
	<path class="st19" d="M2114.7,494.2L1840,514.8c-1.7,0.1-3,1.5-3,3.2l-1.1,185.9c0,1.8,1.5,3.3,3.4,3.3l277.2-8.7
		c1.8-0.1,3.2-1.5,3.2-3.3l-1.4-197.8C2118.2,495.5,2116.6,494,2114.7,494.2z"/>
	<path class="st20" d="M1835.9,703.2l109-83.1c-23.1-16.3-51.6-40.8-75.3-62.8c-12.2-11.3-23.2-22-31.5-30.6
		c-0.4-0.4-0.8-0.8-1.2-1.3l0-5.6c1.2,1.3,2.6,2.7,4,4.2c8.2,8.5,19.1,19.1,31.3,30.5c24.4,22.6,53.9,47.9,77,64
		c7.7,5.4,14.7,9.7,20.5,12.6l17.5-16.3l129.2-120.1c1,0.6,1.6,1.6,1.6,2.8l0,1l-126.3,117.4l127.7,77.9l0,1.5c0,1-0.4,1.8-1.1,2.4
		l-129.6-79l-17.4,16.2l-1,0.9l-1.2-0.6c-6-2.9-13.2-7.3-21.1-12.7l-110.6,84.3c-1-0.6-1.7-1.6-1.7-2.9L1835.9,703.2z"/>
	<path class="st19" d="M2139,318.3l-177.1-38.1c-1.1-0.2-2.2,0.4-2.5,1.5l-35.3,117c-0.3,1.2,0.3,2.4,1.5,2.7l176.4,46.1
		c1.1,0.3,2.3-0.4,2.6-1.5l36-125C2141,319.8,2140.2,318.5,2139,318.3z"/>
	<path class="st20" d="M1924.3,398.2l84.2-32.1c-11.5-14.6-24.9-35.4-35.8-53.6c-5.6-9.4-10.5-18.2-14.1-25.2
		c-0.2-0.3-0.4-0.7-0.5-1l1.1-3.6c0.5,1.1,1.1,2.2,1.7,3.4c3.6,6.9,8.5,15.6,14.1,25c11.2,18.8,25.1,40.2,36.7,54.7
		c3.9,4.8,7.5,8.8,10.6,11.7l14.1-7l103.9-51.7c0.5,0.5,0.7,1.3,0.5,2.1l-0.2,0.6l-101.5,50.6l66,72.9l-0.3,0.9
		c-0.2,0.6-0.6,1.1-1.1,1.3l-67-74l-14,7l-0.8,0.4l-0.6-0.6c-3.3-2.9-7-7-10.9-11.9l-85.5,32.6c-0.5-0.5-0.8-1.4-0.5-2.1
		L1924.3,398.2z"/>
	<path class="st21" d="M1797,451c0,2.7,0,5.4-0.1,8.1l-6-0.2c0.1-2.6,0.1-5.2,0.1-7.9H1797z M1796.1,474.9c-0.5,5.4-1,10.7-1.8,15.8
		l-5.9-0.9C1791,471.4,1787.9,474.3,1796.1,474.9z M1791.4,506.4c-1.1,5.3-2.5,10.5-4,15.5l-5.8-1.7
		C1787.1,502.3,1783.3,504.7,1791.4,506.4z M1782.3,537c-2,5-4.1,9.9-6.5,14.6l-5.4-2.7C1778.7,532.3,1774.1,533.8,1782.3,537z
		 M1768.1,565.7c-2.8,4.6-5.8,9-9,13.2l-4.8-3.6C1765.4,560.4,1760.6,561,1768.1,565.7z M1748.8,591.2c-3.6,3.9-7.4,7.7-11.3,11.3
		l-4.1-4.4C1747.2,585.5,1742.3,585.3,1748.8,591.2z M1725.3,612.9c-4.2,3.3-8.5,6.4-13,9.3l-3.3-5
		C1724.6,606.9,1720.2,606.3,1725.3,612.9z M1698.8,630.6c-4.6,2.6-9.3,5.1-14.1,7.4l-2.6-5.4c4.7-2.3,9.3-4.7,13.7-7.3
		L1698.8,630.6z M1670.2,644.6c-4.8,2.1-9.8,4-14.8,5.8l-2.1-5.6c4.9-1.8,9.8-3.7,14.5-5.7L1670.2,644.6z M1640.4,655.6
		c-5,1.6-10,3.1-15.2,4.6l-1.6-5.8c5.1-1.4,10.1-2.9,15-4.5L1640.4,655.6z M1609.9,664.2c-5.1,1.2-10.2,2.4-15.4,3.5l-1.3-5.9
		c5.2-1.1,10.2-2.3,15.3-3.5L1609.9,664.2z M1579,670.9c-5.1,1-10.3,1.9-15.6,2.7l-1-5.9c5.2-0.9,10.3-1.8,15.4-2.7L1579,670.9z
		 M1547.8,676c-5.2,0.7-10.4,1.5-15.7,2.1l-0.8-6c5.2-0.7,10.4-1.4,15.6-2.1L1547.8,676z M1516.4,680c-5.2,0.6-10.4,1.1-15.7,1.6
		l-0.6-6c5.2-0.5,10.4-1.1,15.6-1.6L1516.4,680z M1485,683.1c-5.2,0.4-10.5,0.9-15.7,1.3l-0.5-6c5.2-0.4,10.5-0.8,15.7-1.3
		L1485,683.1z M1437.5,686.7l-0.6-6c5.3-0.6,7.7-0.7,16.3-1.2C1453.7,688.1,1456.7,684.6,1437.5,686.7z M1421.5,689.1
		c-19,3.8-14.8,6.7-17.4-1.8c5.2-1.6,10.6-3,16.2-4.1L1421.5,689.1z M1390.8,698.7c-17.7,7.8-12.7,10-17.3,2.2
		c4.7-2.8,9.7-5.4,14.9-7.7L1390.8,698.7z M1363.3,715.1c-15.2,12-9.7,12.9-16.2,6.5c3.9-3.9,8-7.7,12.5-11.2L1363.3,715.1z
		 M1340.9,738c-11.6,15.5-6.1,15-14,10.5c2.7-4.8,5.8-9.5,9.2-14.1L1340.9,738z M1325.1,765.9c-7.4,17.9-2.4,16-11.1,13.6
		c1.5-5.3,3.4-10.6,5.5-15.9L1325.1,765.9z M1314.8,808c1.2-14.1,3.6-10.9-4.5-12.2c-0.9,5.6-1.5,11.2-1.8,16.7l2.8,0.1
		c1.6,4.2-2.2,2.9,15.5-2.1l-1.6-5.8C1321.9,805.7,1318.4,806.8,1314.8,808z M1356.8,805.3c-18.3,0.9-14.6,4.8-16.2-4.1
		c5.6-1,10.8-1.6,15.8-1.9L1356.8,805.3z M1386.2,809.1c-16.7-6-14.9,0.8-13.7-9.3c5.8,0.7,11,1.9,15.8,3.6L1386.2,809.1z
		 M1408.3,826.7c-8.3-14.7-12.6-6.5-5.7-15.5c4.6,3.6,8.3,7.8,10.9,12.5L1408.3,826.7z M1298.1,821.1c-4.5,2-9.1,4.2-13.9,6.7
		l-2.7-5.3c4.8-2.5,9.6-4.8,14.2-6.8L1298.1,821.1z M1314.7,828.9c1.4,19.3,5.2,15.2-3.7,17.1c-1.1-5.3-1.9-10.9-2.3-16.7
		L1314.7,828.9z M1270.8,835.1c-4.3,2.5-8.7,5.1-13.2,7.9l-3.2-5.1c4.5-2.9,9-5.5,13.4-8L1270.8,835.1z M1410.9,854.4
		c5.2-16.6-3.6-13.7,7.6-14.7c0.5,5.4-0.2,11-1.9,16.5L1410.9,854.4z M1244.7,851.5c-4.5,3-9,6.2-13.2,9.4l-3.6-4.8
		c3.5-2.6,7.6-5.6,13.4-9.5L1244.7,851.5z M1321.3,860.1c6.9,17.9,10.4,11.9,2.2,17.4c-3-4.5-5.6-9.6-7.8-15.2L1321.3,860.1z
		 M1206.8,881.9l-4.2-4.3c3.9-3.8,8-7.5,12.3-11.2C1220.3,872.7,1220.8,868.2,1206.8,881.9z M1394.2,877.9
		c13.9-11.4,6.7-13.2,15-7.2c-3,4.2-6.8,8.2-11.2,11.8L1394.2,877.9z M1338.9,885.5c14.5,11.2,14.7,0.8,12.3,12.3
		c-5.8-1.2-11.2-3.8-16-7.5L1338.9,885.5z M1374.9,889.2c8.8-3.6,5.9-4.9,9.6,2.2c-4.7,2.5-10.2,4.8-15.6,6.1
		C1367,889.2,1365.8,893,1374.9,889.2z M1195.7,893.7c-12.8,14.7-7.9,14.3-15,9.2c3.2-4.4,6.7-8.8,10.4-13.1L1195.7,893.7z
		 M1176.8,919.9c-9.8,16.8-4.6,15.6-12.8,11.9c2.2-5,4.7-10,7.6-15L1176.8,919.9z M1163.9,949.3c-5.6,18.6-0.6,16.1-9.6,14.7
		c0.9-5.5,2.2-10.9,3.8-16.4L1163.9,949.3z M1158.7,981c-0.5,19.4,3.8,15.7-5.3,16.7c-0.6-5.6-0.8-11.2-0.7-16.8L1158.7,981z
		 M1162.2,1012.8c4.6,18.9,7.8,14.2-0.8,17.5c-2-5.3-3.7-10.6-5.1-16.1L1162.2,1012.8z M1173.7,1042.8c9.2,17.2,10.8,12.1,3.4,17.2
		c-3.2-4.7-6.1-9.5-8.7-14.4L1173.7,1042.8z M1191.9,1069.4c12.6,14.8,13.1,9.7,6.9,16.1c-4.1-3.9-7.9-8-11.5-12.2L1191.9,1069.4z
		 M1215.2,1091.8c15.3,12.2,14.6,7.3,9.8,14.6c-4.7-3.1-9.2-6.4-13.5-9.9L1215.2,1091.8z M1242.1,1109.8c17.1,9.5,15.6,4.8,12,12.8
		c-5.1-2.3-10.1-4.8-14.9-7.5L1242.1,1109.8z M1271.6,1123.2c18.3,6.7,16.2,2.5,13.8,10.8c-5.4-1.6-10.7-3.3-15.9-5.2L1271.6,1123.2
		z M1302.8,1132.2c5.2,1.1,10.6,2,16,2.8l-0.8,5.9c-5.6-0.8-11.1-1.8-16.4-2.9L1302.8,1132.2z M1367.6,1137.1
		c2.7-0.1,5.4-0.3,8.2-0.6l0.5,6c-2.8,0.2-5.6,0.4-8.4,0.6L1367.6,1137.1z M1335,1136.7c5.3,0.4,10.8,0.6,16.3,0.7l-0.1,6
		c-5.6-0.1-11.2-0.3-16.6-0.7L1335,1136.7z"/>
	<path class="st21" d="M1794.4,411l35.4,34.9l-4.9,5l-30.6-30.1l-31.5,30.2l-4.8-5.1L1794.4,411z"/>
</g>
</svg>
