<svg width="420" height="420" viewBox="0 0 420 420" fill="none" xmlns="http://www.w3.org/2000/svg">
  <g transform="translate(7.5, 7.5)">
    <defs>
      <filter id="shadow-pad" x="-50" y="-50" width="500" height="500">
        <feDropShadow dx="0" dy="10" stdDeviation="15" flood-color="#000000" flood-opacity="0.08"/>
      </filter>
    </defs>
    <rect x="25" y="25" width="350" height="350" rx="24" fill="white" filter="url(#shadow-pad)"/>
    <rect x="25" y="25" width="350" height="350" rx="24" stroke="#E5E7EB" stroke-width="1"/>

    <circle cx="200" cy="180" r="80" stroke="#F3F4F6" stroke-width="24" fill="none"/>

    <circle cx="200" cy="180" r="80" stroke="#10B981" stroke-width="24" fill="none"
            stroke-dasharray="286.5 502.65" stroke-linecap="round" transform="rotate(-90 200 180)" />

    <circle cx="200" cy="180" r="80" stroke="#EF4444" stroke-width="24" fill="none"
            stroke-dasharray="125.7 502.65" stroke-linecap="round" transform="rotate(115.2 200 180)" />

    <circle cx="200" cy="180" r="80" stroke="#F59E0B" stroke-width="24" fill="none"
            stroke-dasharray="60.3 502.65" stroke-linecap="round" transform="rotate(205.2 200 180)" />

    <circle cx="200" cy="180" r="80" stroke="#6B7280" stroke-width="24" fill="none"
            stroke-dasharray="30.2 502.65" stroke-linecap="round" transform="rotate(248.4 200 180)" />

    <text x="330" y="185" text-anchor="middle" font-family="sans-serif" font-weight="bold" font-size="18" fill="#111827">57%</text>
    <text x="90" y="270" text-anchor="middle" font-family="sans-serif" font-weight="bold" font-size="18" fill="#111827">25%</text>
    <text x="85" y="145" text-anchor="middle" font-family="sans-serif" font-weight="bold" font-size="18" fill="#111827">12%</text>
    <text x="190" y="65" text-anchor="middle" font-family="sans-serif" font-weight="bold" font-size="18" fill="#111827">6%</text>

    <text x="200" y="185" text-anchor="middle" font-family="sans-serif" font-weight="bold" font-size="28" fill="#111827">100%</text>
    <text x="200" y="205" text-anchor="middle" font-family="sans-serif" font-size="12" fill="#6B7280">Scanned</text>

    <g transform="translate(0, 10)">
      <circle cx="85" cy="305" r="4" fill="#10B981"/>
      <text x="95" y="309" font-family="sans-serif" font-size="11" fill="#374151">Valid</text>
      
      <circle cx="155" cy="305" r="4" fill="#EF4444"/>
      <text x="165" y="309" font-family="sans-serif" font-size="11" fill="#374151">Invalid</text>

      <circle cx="225" cy="305" r="4" fill="#F59E0B"/>
      <text x="235" y="309" font-family="sans-serif" font-size="11" fill="#374151">Catch-all</text>
      
      <circle cx="305" cy="305" r="4" fill="#6B7280"/>
      <text x="315" y="309" font-family="sans-serif" font-size="11" fill="#374151">Disp.</text>
    </g>

    <line x1="50" y1="330" x2="350" y2="330" stroke="#F3F4F6" stroke-width="1"/>

    <text x="200" y="355" text-anchor="middle" font-family="sans-serif" font-weight="600" font-size="12" letter-spacing="0.5" fill="#111827">VERIFICATION SUMMARY</text>
  </g>
</svg>