<svg width="600" height="150" viewBox="0 0 600 150" xmlns="http://www.w3.org/2000/svg">
  <defs>
    <style>
      .blue-text { fill: #203378; font-family: Arial, Helvetica, sans-serif; font-weight: bold; font-size: 100px; }
      .gray-text { fill: #555555; font-family: Arial, Helvetica, sans-serif; font-weight: bold; font-size: 100px; }
      .dot { fill: #203378; }
    </style>
  </defs>

  <text x="10" y="110" class="blue-text">TELC</text>

  <g transform="translate(320, 75)">
    <circle cx="0" cy="-35" r="3" class="dot"/>
    <circle cx="0" cy="-24" r="4" class="dot"/>
    <circle cx="0" cy="-11" r="5" class="dot"/>
    <circle cx="0" cy="4" r="5" class="dot"/>
    <circle cx="0" cy="19" r="4" class="dot"/>
    <circle cx="0" cy="32" r="3" class="dot"/>

    <circle cx="14" cy="-30" r="3" class="dot"/>
    <circle cx="16" cy="-18" r="4" class="dot"/>
    <circle cx="18" cy="-5" r="5" class="dot"/>
    <circle cx="16" cy="10" r="4" class="dot"/>
    <circle cx="14" cy="25" r="3" class="dot"/>

    <circle cx="28" cy="-20" r="2.5" class="dot"/>
    <circle cx="30" cy="-8" r="3.5" class="dot"/>
    <circle cx="28" cy="8" r="2.5" class="dot"/>
    
    <circle cx="40" cy="-5" r="2" class="dot"/>

    <circle cx="-14" cy="-30" r="3" class="dot"/>
    <circle cx="-16" cy="-18" r="4" class="dot"/>
    <circle cx="-18" cy="-5" r="5" class="dot"/>
    <circle cx="-16" cy="10" r="4" class="dot"/>
    <circle cx="-14" cy="25" r="3" class="dot"/>

    <circle cx="-28" cy="-20" r="2.5" class="dot"/>
    <circle cx="-30" cy="-8" r="3.5" class="dot"/>
    <circle cx="-28" cy="8" r="2.5" class="dot"/>

    <circle cx="-40" cy="-5" r="2" class="dot"/>
  </g>

  <text x="390" y="110" class="gray-text">NET</text>
</svg>