<svg preserveAspectRatio="none" width="100%" height="100%" overflow="visible" style="display: block;" viewBox="0 0 19.738 20" fill="none" xmlns="http://www.w3.org/2000/svg">
<g id="Group 3019">
<path id="Vector" d="M19.738 10.228C19.7388 9.54661 19.6808 8.86638 19.5646 8.1948H10.0688V12.046H15.5075C15.3962 12.6611 15.1607 13.2474 14.8151 13.7697C14.4694 14.2919 14.0209 14.7393 13.4965 15.0847V17.5846H16.7424C18.643 15.8444 19.738 13.2709 19.738 10.228Z" fill="var(--fill-0, #4285F4)"/>
<path id="Vector_2" d="M10.0688 20C12.786 20 15.074 19.1139 16.7424 17.5862L13.4965 15.0864C12.5931 15.6947 11.4295 16.0419 10.0688 16.0419C7.44239 16.0419 5.21318 14.2836 4.41604 11.9143H1.07223V14.4906C1.9103 16.1467 3.1954 17.5389 4.78404 18.5118C6.37268 19.4847 8.20235 19.9999 10.0688 20V20Z" fill="var(--fill-0, #34A853)"/>
<path id="Vector_3" d="M4.416 11.914C3.99458 10.6724 3.99458 9.32792 4.416 8.08638V5.51012H1.07219C0.367172 6.90332 0 8.44094 0 10.0002C0 11.5594 0.367172 13.097 1.07219 14.4902L4.416 11.914Z" fill="var(--fill-0, #FBBC04)"/>
<path id="Vector_4" d="M10.0688 3.95879C11.5047 3.93549 12.8922 4.47429 13.9314 5.45872L16.8053 2.60469C14.983 0.904883 12.5687 -0.0283412 10.0688 0.000656061C8.20235 0.000740536 6.37268 0.515984 4.78404 1.48886C3.1954 2.46174 1.9103 3.85397 1.07223 5.5101L4.41604 8.08636C5.21318 5.71704 7.44239 3.95879 10.0688 3.95879Z" fill="var(--fill-0, #EA4335)"/>
</g>
</svg>
